<svg width="65" height="37" viewBox="0 0 65 37" fill="none" xmlns="http://www.w3.org/2000/svg">
<path fill-rule="evenodd" clip-rule="evenodd" d="M49.4965 0C46.8286 5.89703 40.8934 10 34 10C27.1066 10 21.1714 5.89703 18.5035 0H26.8586C28.6735 1.85138 31.2026 3 34 3C36.7974 3 39.3265 1.85138 41.1414 0H49.4965Z" fill="#307FE2"/>
<path fill-rule="evenodd" clip-rule="evenodd" d="M0 33.4965C2.13474 34.4623 4.50458 35 7 35C16.3889 35 24 27.3889 24 18C24 8.61115 16.3889 1 7 1C4.50458 1 2.13474 1.53766 0 2.50348V10.8586C1.80374 9.09033 4.27454 8 7 8C12.5229 8 17 12.4772 17 18C17 23.5228 12.5229 28 7 28C4.27454 28 1.80374 26.9097 0 25.1414V33.4965Z" fill="#30B700"/>
<path fill-rule="evenodd" clip-rule="evenodd" d="M65 2.08911C63.1342 1.38519 61.1121 1 59 1C49.6111 1 42 8.61115 42 18C42 27.3889 49.6111 35 59 35C61.1121 35 63.1342 34.6148 65 33.9109V26.0007C63.3287 27.2561 61.2512 28 59 28C53.4771 28 49 23.5228 49 18C49 12.4772 53.4771 8 59 8C61.2512 8 63.3287 8.7439 65 9.99927V2.08911Z" fill="#00B5E2"/>
<path fill-rule="evenodd" clip-rule="evenodd" d="M49.0038 37C46.1422 31.6442 40.4966 28 34 28C27.5034 28 21.8578 31.6442 18.9962 37H27.999C29.6705 35.7442 31.7484 35 34 35C36.2516 35 38.3295 35.7442 40.001 37H49.0038Z" fill="#407DE2"/>
</svg>
