<?xml version="1.0" encoding="UTF-8" ?>
<!DOCTYPE svg PUBLIC "-//W3C//DTD SVG 1.1//EN" "http://www.w3.org/Graphics/SVG/1.1/DTD/svg11.dtd">
<svg width="499pt" height="499pt" viewBox="0 0 499 499" version="1.1" xmlns="http://www.w3.org/2000/svg">
<g id="#252525ff">
</g>
<g id="#ffffffff">
</g>
<g id="#f2a900ff">
<path fill="#f2a900" opacity="1.00" d=" M 153.01 11.06 C 170.60 6.56 188.90 5.79 206.97 5.99 C 232.86 5.73 259.04 9.92 282.89 20.22 C 295.19 25.96 307.83 32.77 315.78 44.16 C 319.58 49.65 321.69 56.31 321.27 63.01 C 320.96 71.94 321.83 80.94 320.76 89.84 C 318.08 103.63 306.19 112.96 294.70 119.64 C 295.21 120.88 295.74 122.14 296.26 123.39 C 305.34 127.25 314.23 131.78 322.07 137.83 C 328.42 142.75 333.92 149.15 336.47 156.87 C 338.55 163.04 337.52 169.62 337.75 175.99 C 337.48 183.41 338.67 191.08 336.21 198.25 C 334.74 202.83 331.81 206.73 328.89 210.48 C 336.43 216.58 343.01 224.97 343.90 234.93 C 344.18 241.29 343.91 247.65 344.00 254.01 C 361.17 253.01 378.72 253.94 395.08 259.69 C 419.46 268.47 440.37 285.80 454.78 307.21 C 475.41 338.16 479.06 379.24 465.71 413.77 C 457.99 433.80 444.20 451.15 427.41 464.37 C 390.35 494.07 334.64 496.66 294.58 471.43 C 273.57 458.01 256.44 438.41 246.62 415.44 C 234.21 421.80 220.89 426.25 207.29 429.25 C 191.73 432.35 175.91 434.62 160.01 434.25 C 146.28 434.53 132.51 433.64 119.00 431.10 C 101.37 428.41 84.05 423.11 68.29 414.70 C 57.99 408.87 47.63 401.34 42.85 390.12 C 39.42 382.53 40.75 374.03 40.51 365.97 C 40.70 359.33 39.66 352.41 42.09 346.05 C 43.52 341.91 46.08 338.31 48.74 334.88 C 38.09 328.33 27.26 319.13 25.15 306.10 C 24.26 297.11 25.00 288.03 24.72 279.00 C 24.16 267.66 31.23 257.53 39.83 250.82 C 50.34 242.62 62.61 236.89 75.16 232.55 C 73.67 228.52 72.67 224.27 72.74 219.95 C 72.78 211.96 72.70 203.96 72.77 195.98 C 72.76 191.10 74.70 186.56 76.82 182.27 C 70.44 176.82 64.99 169.93 63.05 161.61 C 50.06 154.70 36.14 144.67 33.58 129.13 C 32.81 120.12 33.47 111.03 33.22 101.99 C 32.75 90.56 40.02 80.43 48.74 73.74 C 60.06 65.09 73.24 59.11 86.77 54.81 C 90.14 42.36 100.40 33.48 111.12 27.17 C 124.07 19.52 138.33 14.23 153.01 11.06 M 183.50 17.61 C 176.29 18.17 169.07 18.87 162.03 20.56 C 149.01 23.23 136.10 27.03 124.38 33.40 C 116.66 37.56 108.99 42.79 104.56 50.57 C 100.79 56.98 100.85 65.23 104.22 71.79 C 108.46 80.00 116.46 85.36 124.37 89.63 C 138.74 96.86 154.37 101.46 170.27 103.74 C 185.99 106.64 202.07 106.57 217.99 105.99 C 240.56 104.29 263.35 99.90 283.64 89.49 C 290.31 85.90 296.84 81.51 301.37 75.32 C 305.93 69.14 307.52 60.57 304.52 53.38 C 301.61 46.21 295.55 40.92 289.21 36.80 C 274.09 27.12 256.46 22.45 238.97 19.26 C 220.63 16.55 201.97 16.45 183.50 17.61 M 52.95 87.98 C 47.43 95.17 47.02 105.57 51.76 113.26 C 57.35 122.44 67.09 128.02 76.56 132.49 C 107.19 145.93 141.56 148.52 174.55 145.41 C 183.70 143.94 193.12 143.27 201.88 140.06 C 179.19 139.52 156.36 136.60 134.80 129.27 C 122.46 124.80 110.14 119.42 100.08 110.80 C 94.01 105.59 88.75 98.94 86.98 90.98 C 85.49 82.96 86.57 74.73 86.22 66.62 C 73.99 71.51 61.10 77.17 52.95 87.98 M 267.66 131.11 C 266.01 136.96 263.10 142.45 258.83 146.81 C 251.90 154.21 243.06 159.54 233.92 163.76 C 220.10 170.13 205.35 174.54 190.28 176.68 C 200.28 177.38 210.15 175.20 219.98 173.67 C 233.21 171.23 246.20 167.15 258.26 161.15 C 266.17 156.90 274.22 151.76 278.85 143.81 C 282.17 138.49 282.45 132.04 281.50 126.01 C 276.89 127.72 272.27 129.39 267.66 131.11 M 297.52 136.56 C 297.17 145.01 298.26 153.57 296.77 161.94 C 294.14 173.50 284.73 181.95 275.12 188.08 C 253.63 201.29 228.53 207.02 203.72 209.82 C 210.42 210.84 217.21 210.44 223.96 210.51 C 234.05 210.60 244.13 209.68 254.06 207.94 C 270.85 205.46 287.47 200.65 302.42 192.49 C 309.36 188.41 316.31 183.39 320.03 176.02 C 323.57 169.19 323.39 160.52 319.21 154.00 C 314.17 145.96 305.92 140.58 297.52 136.56 M 88.92 190.64 C 87.80 196.78 87.92 203.43 91.23 208.93 C 96.75 218.40 106.65 224.17 116.34 228.62 C 139.20 238.64 164.37 242.50 189.20 242.61 C 183.32 241.37 177.36 240.54 171.47 239.36 C 157.95 236.50 144.85 231.75 132.51 225.56 C 123.64 220.90 115.01 215.14 108.95 207.03 C 106.73 204.15 105.65 200.58 103.49 197.68 C 98.83 194.97 93.62 193.30 88.92 190.64 M 307.40 226.00 C 304.48 239.30 293.47 248.68 282.19 255.18 C 259.02 268.39 232.27 273.68 205.95 275.71 C 193.88 276.20 181.76 276.25 169.71 275.40 C 192.94 282.37 217.47 283.59 241.57 282.47 C 257.45 281.24 273.39 278.98 288.47 273.69 C 293.65 271.82 297.97 268.29 302.88 265.87 C 307.47 263.36 312.53 261.76 316.96 258.96 C 324.34 253.56 329.63 244.44 328.38 235.09 C 327.67 228.66 323.64 223.27 319.14 218.90 C 315.32 221.42 311.38 223.75 307.40 226.00 M 45.89 262.90 C 40.24 269.18 38.26 278.56 41.53 286.44 C 45.48 296.27 54.82 302.38 63.79 307.18 C 91.60 321.04 123.40 323.98 154.05 322.90 C 169.75 321.95 185.49 319.87 200.56 315.22 C 182.57 312.72 164.60 309.20 147.79 302.12 C 147.77 304.24 147.75 306.38 147.74 308.51 C 144.25 308.50 140.76 308.50 137.27 308.51 C 137.25 306.47 137.23 304.44 137.21 302.42 C 126.03 301.91 112.21 299.34 107.18 287.90 C 112.24 287.59 117.30 287.34 122.36 287.07 C 118.39 283.14 114.41 279.04 112.02 273.92 C 109.88 269.76 109.21 265.09 108.74 260.50 C 98.61 256.08 89.20 249.99 81.35 242.19 C 68.60 247.13 55.14 252.39 45.89 262.90 M 339.41 277.58 C 313.41 281.14 291.04 298.24 276.41 319.42 C 264.11 337.22 259.97 359.67 261.95 380.97 C 263.33 397.43 269.43 413.42 279.45 426.56 C 291.14 441.85 306.70 454.84 325.21 460.83 C 348.11 468.76 374.08 467.38 396.06 457.17 C 423.39 443.84 444.65 417.38 449.49 387.09 C 452.99 365.28 449.48 342.02 437.92 323.02 C 426.37 304.10 408.60 288.82 387.71 281.20 C 372.21 276.07 355.50 275.38 339.41 277.58 M 242.65 329.81 C 242.74 332.21 242.84 334.62 242.96 337.03 C 243.86 334.62 244.75 332.22 245.66 329.82 C 244.90 329.82 243.40 329.81 242.65 329.81 M 226.07 340.08 C 228.11 340.94 230.15 341.80 232.20 342.67 C 232.23 340.70 232.25 338.74 232.28 336.78 C 230.21 337.88 228.14 338.98 226.07 340.08 M 61.03 341.18 C 58.61 345.06 56.17 349.21 56.01 353.91 C 55.45 360.64 58.22 367.31 62.72 372.24 C 70.39 380.58 80.85 385.69 91.27 389.72 C 109.02 396.75 128.14 399.40 147.09 400.43 C 159.27 400.49 171.53 401.00 183.61 399.16 C 168.25 394.22 152.54 389.21 139.21 379.83 C 133.60 375.54 126.20 373.04 123.12 366.15 C 123.28 365.69 123.61 364.77 123.78 364.31 C 122.57 361.61 121.46 358.86 120.42 356.10 C 100.09 353.75 79.69 349.91 61.03 341.18 M 161.02 356.29 C 185.09 367.54 212.05 371.38 238.43 370.98 C 238.51 366.15 238.79 361.32 239.23 356.52 C 236.91 356.51 234.60 356.50 232.28 356.50 C 232.25 354.44 232.21 352.39 232.17 350.34 C 225.21 349.91 218.26 348.74 211.80 346.01 C 195.44 351.78 178.23 354.63 161.02 356.29 Z" />
<path fill="#f2a900" opacity="1.00" d=" M 198.79 31.24 C 202.25 31.25 205.72 31.25 209.19 31.24 C 209.23 32.38 209.27 33.51 209.31 34.65 C 216.62 35.56 224.42 36.00 230.76 40.17 C 233.20 41.65 234.76 44.08 236.37 46.35 C 230.34 46.71 224.30 47.10 218.26 47.22 C 215.92 44.50 212.76 42.79 209.33 41.88 C 209.23 46.37 209.24 50.87 209.26 55.37 C 216.57 56.29 224.08 57.11 230.87 60.15 C 234.43 61.87 238.34 64.64 238.76 68.92 C 239.29 73.64 235.69 77.52 231.93 79.79 C 225.05 83.71 217.02 84.80 209.25 85.41 C 209.25 87.44 209.24 89.47 209.25 91.50 C 205.75 91.50 202.26 91.50 198.76 91.50 C 198.75 89.54 198.74 87.58 198.74 85.62 C 190.53 85.01 182.05 83.63 175.03 79.07 C 171.99 77.18 170.36 73.90 168.71 70.87 C 174.91 70.56 181.12 70.11 187.34 70.06 C 190.08 73.94 194.32 76.18 198.65 77.85 C 198.77 73.03 198.77 68.21 198.75 63.40 C 190.71 62.01 182.04 60.83 175.45 55.60 C 171.61 52.69 170.25 46.52 173.83 42.86 C 180.13 36.07 190.05 35.45 198.71 34.66 C 198.73 33.52 198.76 32.38 198.79 31.24 M 189.65 48.02 C 190.78 51.95 195.49 52.55 198.74 53.96 C 198.77 49.90 198.75 45.84 198.65 41.78 C 195.39 43.16 190.21 43.76 189.65 48.02 M 209.27 64.74 C 209.24 69.18 209.23 73.63 209.30 78.07 C 213.03 77.38 217.18 76.91 220.00 74.10 C 221.48 72.74 221.86 70.11 220.28 68.67 C 217.36 65.86 213.05 65.56 209.27 64.74 Z" />
<path fill="#f2a900" opacity="1.00" d=" M 351.01 306.99 C 354.51 307.00 358.01 307.01 361.51 307.03 C 361.51 309.32 361.51 311.62 361.53 313.93 C 368.05 315.51 375.12 317.11 379.91 322.19 C 384.55 326.70 386.88 332.90 388.21 339.10 C 382.24 339.93 376.28 340.79 370.31 341.52 C 369.04 336.60 366.18 332.24 361.62 329.80 C 361.39 339.17 361.53 348.54 361.53 357.91 C 371.17 360.84 382.19 364.25 387.35 373.71 C 394.76 387.44 391.01 407.00 377.64 415.72 C 372.86 419.08 367.14 420.56 361.50 421.71 C 361.50 426.05 361.50 430.40 361.51 434.75 C 358.00 434.75 354.51 434.75 351.01 434.76 C 351.00 430.56 351.00 426.36 351.00 422.17 C 344.18 420.91 337.36 418.56 332.21 413.75 C 325.46 408.06 322.52 399.29 321.15 390.85 C 327.36 390.23 333.57 389.52 339.78 388.94 C 340.80 392.18 341.67 395.56 343.66 398.37 C 345.57 401.11 348.31 403.10 350.92 405.12 C 351.08 395.05 350.97 384.99 350.99 374.93 C 344.18 372.79 337.39 369.85 332.35 364.63 C 326.05 358.57 323.48 349.50 324.02 340.94 C 324.45 330.87 330.76 321.07 340.12 317.13 C 343.58 315.61 347.31 314.92 350.98 314.11 C 350.99 311.74 351.00 309.36 351.01 306.99 M 341.75 343.07 C 342.01 348.54 346.64 352.20 350.91 354.86 C 351.05 346.40 351.06 337.93 350.91 329.47 C 345.83 332.04 341.28 337.00 341.75 343.07 M 361.57 377.58 C 361.47 387.11 361.46 396.64 361.58 406.17 C 364.17 405.01 367.04 404.13 369.08 402.04 C 373.28 397.92 374.89 391.05 372.24 385.68 C 370.07 381.52 365.67 379.38 361.57 377.58 Z" />
</g>
<g id="#ffd573ff">
<path fill="#ffd573" opacity="1.00" d=" M 183.50 17.61 C 201.97 16.45 220.63 16.55 238.97 19.26 C 256.46 22.45 274.09 27.12 289.21 36.80 C 295.55 40.92 301.61 46.21 304.52 53.38 C 307.52 60.57 305.93 69.14 301.37 75.32 C 296.84 81.51 290.31 85.90 283.64 89.49 C 263.35 99.90 240.56 104.29 217.99 105.99 C 202.07 106.57 185.99 106.64 170.27 103.74 C 154.37 101.46 138.74 96.86 124.37 89.63 C 116.46 85.36 108.46 80.00 104.22 71.79 C 100.85 65.23 100.79 56.98 104.56 50.57 C 108.99 42.79 116.66 37.56 124.38 33.40 C 136.10 27.03 149.01 23.23 162.03 20.56 C 169.07 18.87 176.29 18.17 183.50 17.61 M 198.79 31.24 C 198.76 32.38 198.73 33.52 198.71 34.66 C 190.05 35.45 180.13 36.07 173.83 42.86 C 170.25 46.52 171.61 52.69 175.45 55.60 C 182.04 60.83 190.71 62.01 198.75 63.40 C 198.77 68.21 198.77 73.03 198.65 77.85 C 194.32 76.18 190.08 73.94 187.34 70.06 C 181.12 70.11 174.91 70.56 168.71 70.87 C 170.36 73.90 171.99 77.18 175.03 79.07 C 182.05 83.63 190.53 85.01 198.74 85.62 C 198.74 87.58 198.75 89.54 198.76 91.50 C 202.26 91.50 205.75 91.50 209.25 91.50 C 209.24 89.47 209.25 87.44 209.25 85.41 C 217.02 84.80 225.05 83.71 231.93 79.79 C 235.69 77.52 239.29 73.64 238.76 68.92 C 238.34 64.64 234.43 61.87 230.87 60.15 C 224.08 57.11 216.57 56.29 209.26 55.37 C 209.24 50.87 209.23 46.37 209.33 41.88 C 212.76 42.79 215.92 44.50 218.26 47.22 C 224.30 47.10 230.34 46.71 236.37 46.35 C 234.76 44.08 233.20 41.65 230.76 40.17 C 224.42 36.00 216.62 35.56 209.31 34.65 C 209.27 33.51 209.23 32.38 209.19 31.24 C 205.72 31.25 202.25 31.25 198.79 31.24 Z" />
<path fill="#ffd573" opacity="1.00" d=" M 189.65 48.02 C 190.21 43.76 195.39 43.16 198.65 41.78 C 198.75 45.84 198.77 49.90 198.74 53.96 C 195.49 52.55 190.78 51.95 189.65 48.02 Z" />
<path fill="#ffd573" opacity="1.00" d=" M 209.27 64.74 C 213.05 65.56 217.36 65.86 220.28 68.67 C 221.86 70.11 221.48 72.74 220.00 74.10 C 217.18 76.91 213.03 77.38 209.30 78.07 C 209.23 73.63 209.24 69.18 209.27 64.74 Z" />
<path fill="#ffd573" opacity="1.00" d=" M 52.95 87.98 C 61.10 77.17 73.99 71.51 86.22 66.62 C 86.57 74.73 85.49 82.96 86.98 90.98 C 88.75 98.94 94.01 105.59 100.08 110.80 C 110.14 119.42 122.46 124.80 134.80 129.27 C 156.36 136.60 179.19 139.52 201.88 140.06 C 193.12 143.27 183.70 143.94 174.55 145.41 C 141.56 148.52 107.19 145.93 76.56 132.49 C 67.09 128.02 57.35 122.44 51.76 113.26 C 47.02 105.57 47.43 95.17 52.95 87.98 Z" />
<path fill="#ffd573" opacity="1.00" d=" M 267.66 131.11 C 272.27 129.39 276.89 127.72 281.50 126.01 C 282.45 132.04 282.17 138.49 278.85 143.81 C 274.22 151.76 266.17 156.90 258.26 161.15 C 246.20 167.15 233.21 171.23 219.98 173.67 C 210.15 175.20 200.28 177.38 190.28 176.68 C 205.35 174.54 220.10 170.13 233.92 163.76 C 243.06 159.54 251.90 154.21 258.83 146.81 C 263.10 142.45 266.01 136.96 267.66 131.11 Z" />
<path fill="#ffd573" opacity="1.00" d=" M 297.52 136.56 C 305.92 140.58 314.17 145.96 319.21 154.00 C 323.39 160.52 323.57 169.19 320.03 176.02 C 316.31 183.39 309.36 188.41 302.42 192.49 C 287.47 200.65 270.85 205.46 254.06 207.94 C 244.13 209.68 234.05 210.60 223.96 210.51 C 217.21 210.44 210.42 210.84 203.72 209.82 C 228.53 207.02 253.63 201.29 275.12 188.08 C 284.73 181.95 294.14 173.50 296.77 161.94 C 298.26 153.57 297.17 145.01 297.52 136.56 Z" />
<path fill="#ffd573" opacity="1.00" d=" M 88.92 190.64 C 93.62 193.30 98.83 194.97 103.49 197.68 C 105.65 200.58 106.73 204.15 108.95 207.03 C 115.01 215.14 123.64 220.90 132.51 225.56 C 144.85 231.75 157.95 236.50 171.47 239.36 C 177.36 240.54 183.32 241.37 189.20 242.61 C 164.37 242.50 139.20 238.64 116.34 228.62 C 106.65 224.17 96.75 218.40 91.23 208.93 C 87.92 203.43 87.80 196.78 88.92 190.64 Z" />
<path fill="#ffd573" opacity="1.00" d=" M 307.40 226.00 C 311.38 223.75 315.32 221.42 319.14 218.90 C 323.64 223.27 327.67 228.66 328.38 235.09 C 329.63 244.44 324.34 253.56 316.96 258.96 C 312.53 261.76 307.47 263.36 302.88 265.87 C 297.97 268.29 293.65 271.82 288.47 273.69 C 273.39 278.98 257.45 281.24 241.57 282.47 C 217.47 283.59 192.94 282.37 169.71 275.40 C 181.76 276.25 193.88 276.20 205.95 275.71 C 232.27 273.68 259.02 268.39 282.19 255.18 C 293.47 248.68 304.48 239.30 307.40 226.00 Z" />
<path fill="#ffd573" opacity="1.00" d=" M 45.89 262.90 C 55.14 252.39 68.60 247.13 81.35 242.19 C 89.20 249.99 98.61 256.08 108.74 260.50 C 109.21 265.09 109.88 269.76 112.02 273.92 C 114.41 279.04 118.39 283.14 122.36 287.07 C 117.30 287.34 112.24 287.59 107.18 287.90 C 112.21 299.34 126.03 301.91 137.21 302.42 C 137.23 304.44 137.25 306.47 137.27 308.51 C 140.76 308.50 144.25 308.50 147.74 308.51 C 147.75 306.38 147.77 304.24 147.79 302.12 C 164.60 309.20 182.57 312.72 200.56 315.22 C 185.49 319.87 169.75 321.95 154.05 322.90 C 123.40 323.98 91.60 321.04 63.79 307.18 C 54.82 302.38 45.48 296.27 41.53 286.44 C 38.26 278.56 40.24 269.18 45.89 262.90 Z" />
<path fill="#ffd573" opacity="1.00" d=" M 339.41 277.58 C 355.50 275.38 372.21 276.07 387.71 281.20 C 408.60 288.82 426.37 304.10 437.92 323.02 C 449.48 342.02 452.99 365.28 449.49 387.09 C 444.65 417.38 423.39 443.84 396.06 457.17 C 374.08 467.38 348.11 468.76 325.21 460.83 C 306.70 454.84 291.14 441.85 279.45 426.56 C 269.43 413.42 263.33 397.43 261.95 380.97 C 259.97 359.67 264.11 337.22 276.41 319.42 C 291.04 298.24 313.41 281.14 339.41 277.58 M 351.01 306.99 C 351.00 309.36 350.99 311.74 350.98 314.11 C 347.31 314.92 343.58 315.61 340.12 317.13 C 330.76 321.07 324.45 330.87 324.02 340.94 C 323.48 349.50 326.05 358.57 332.35 364.63 C 337.39 369.85 344.18 372.79 350.99 374.93 C 350.97 384.99 351.08 395.05 350.92 405.12 C 348.31 403.10 345.57 401.11 343.66 398.37 C 341.67 395.56 340.80 392.18 339.78 388.94 C 333.57 389.52 327.36 390.23 321.15 390.85 C 322.52 399.29 325.46 408.06 332.21 413.75 C 337.36 418.56 344.18 420.91 351.00 422.17 C 351.00 426.36 351.00 430.56 351.01 434.76 C 354.51 434.75 358.00 434.75 361.51 434.75 C 361.50 430.40 361.50 426.05 361.50 421.71 C 367.14 420.56 372.86 419.08 377.64 415.72 C 391.01 407.00 394.76 387.44 387.35 373.71 C 382.19 364.25 371.17 360.84 361.53 357.91 C 361.53 348.54 361.39 339.17 361.62 329.80 C 366.18 332.24 369.04 336.60 370.31 341.52 C 376.28 340.79 382.24 339.93 388.21 339.10 C 386.88 332.90 384.55 326.70 379.91 322.19 C 375.12 317.11 368.05 315.51 361.53 313.93 C 361.51 311.62 361.51 309.32 361.51 307.03 C 358.01 307.01 354.51 307.00 351.01 306.99 Z" />
<path fill="#ffd573" opacity="1.00" d=" M 341.75 343.07 C 341.28 337.00 345.83 332.04 350.91 329.47 C 351.06 337.93 351.05 346.40 350.91 354.86 C 346.64 352.20 342.01 348.54 341.75 343.07 Z" />
<path fill="#ffd573" opacity="1.00" d=" M 61.03 341.18 C 79.69 349.91 100.09 353.75 120.42 356.10 C 121.46 358.86 122.57 361.61 123.78 364.31 C 123.61 364.77 123.28 365.69 123.12 366.15 C 126.20 373.04 133.60 375.54 139.21 379.83 C 152.54 389.21 168.25 394.22 183.61 399.16 C 171.53 401.00 159.27 400.49 147.09 400.43 C 128.14 399.40 109.02 396.75 91.27 389.72 C 80.85 385.69 70.39 380.58 62.72 372.24 C 58.22 367.31 55.45 360.64 56.01 353.91 C 56.17 349.21 58.61 345.06 61.03 341.18 Z" />
<path fill="#ffd573" opacity="1.00" d=" M 161.02 356.29 C 178.23 354.63 195.44 351.78 211.80 346.01 C 218.26 348.74 225.21 349.91 232.17 350.34 C 232.21 352.39 232.25 354.44 232.28 356.50 C 234.60 356.50 236.91 356.51 239.23 356.52 C 238.79 361.32 238.51 366.15 238.43 370.98 C 212.05 371.38 185.09 367.54 161.02 356.29 Z" />
<path fill="#ffd573" opacity="1.00" d=" M 361.57 377.58 C 365.67 379.38 370.07 381.52 372.24 385.68 C 374.89 391.05 373.28 397.92 369.08 402.04 C 367.04 404.13 364.17 405.01 361.58 406.17 C 361.46 396.64 361.47 387.11 361.57 377.58 Z" />
</g>
<g id="#fed167ff">
<path fill="#fed167" opacity="1.00" d=" M 242.65 329.81 C 243.40 329.81 244.90 329.82 245.66 329.82 C 244.75 332.22 243.86 334.62 242.96 337.03 C 242.84 334.62 242.74 332.21 242.65 329.81 Z" />
</g>
<g id="#fed168ff">
<path fill="#fed168" opacity="1.00" d=" M 226.07 340.08 C 228.14 338.98 230.21 337.88 232.28 336.78 C 232.25 338.74 232.23 340.70 232.20 342.67 C 230.15 341.80 228.11 340.94 226.07 340.08 Z" />
</g>
</svg>
