<?xml version="1.0" encoding="UTF-8" standalone="no" ?>
<!DOCTYPE svg PUBLIC "-//W3C//DTD SVG 1.1//EN" "http://www.w3.org/Graphics/SVG/1.1/DTD/svg11.dtd">
<svg xmlns="http://www.w3.org/2000/svg" xmlns:xlink="http://www.w3.org/1999/xlink" version="1.1" width="350" height="350" viewBox="0 0 350 350" xml:space="preserve">
<desc>Created with Fabric.js 1.7.22</desc>
<defs>
</defs>
<g id="icon" style="stroke: none; stroke-width: 1; stroke-dasharray: none; stroke-linecap: butt; stroke-linejoin: miter; stroke-miterlimit: 10; fill: none; fill-rule: nonzero; opacity: 1;" transform="translate(-1.9444444444444287 -1.9444444444444287) scale(3.89 3.89)" >
	<path d="M 58.458 15.5 c 16.266 0 29.5 13.234 29.5 29.5 s -13.234 29.5 -29.5 29.5 s -29.5 -13.234 -29.5 -29.5 S 42.192 15.5 58.458 15.5" style="stroke: none; stroke-width: 1; stroke-dasharray: none; stroke-linecap: butt; stroke-linejoin: miter; stroke-miterlimit: 10; fill: rgb(252,198,45); fill-rule: nonzero; opacity: 1;" transform=" matrix(1 0 0 1 0 0) " stroke-linecap="round" />
	<path d="M 58.458 16.449 c 15.743 0 28.551 12.808 28.551 28.551 S 74.201 73.551 58.458 73.551 S 29.908 60.743 29.908 45 S 42.716 16.449 58.458 16.449 M 58.458 13.458 c -17.42 0 -31.542 14.122 -31.542 31.542 s 14.122 31.542 31.542 31.542 S 90 62.42 90 45 S 75.878 13.458 58.458 13.458 L 58.458 13.458 z" style="stroke: none; stroke-width: 1; stroke-dasharray: none; stroke-linecap: butt; stroke-linejoin: miter; stroke-miterlimit: 10; fill: rgb(69,86,60); fill-rule: nonzero; opacity: 1;" transform=" matrix(1 0 0 1 0 0) " stroke-linecap="round" />
	<path d="M 69.086 50.888 c -0.826 0 -1.495 0.67 -1.495 1.496 c 0 1.951 -1.262 3.538 -2.813 3.538 H 52.14 c -1.551 0 -2.813 -1.587 -2.813 -3.538 V 37.617 c 0 -1.951 1.262 -3.539 2.813 -3.539 h 12.638 c 1.551 0 2.813 1.588 2.813 3.539 c 0 0.826 0.67 1.496 1.495 1.496 c 0.826 0 1.496 -0.669 1.496 -1.496 c 0 -3.601 -2.604 -6.53 -5.804 -6.53 h -4.823 v -3.611 c 0 -0.826 -0.67 -1.496 -1.496 -1.496 c -0.826 0 -1.496 0.669 -1.496 1.496 v 3.611 H 52.14 c -3.2 0 -5.804 2.929 -5.804 6.53 v 14.766 c 0 3.601 2.604 6.529 5.804 6.529 h 4.823 v 3.61 c 0 0.826 0.67 1.496 1.496 1.496 c 0.826 0 1.496 -0.67 1.496 -1.496 v -3.61 h 4.823 c 3.2 0 5.804 -2.929 5.804 -6.529 C 70.581 51.558 69.911 50.888 69.086 50.888 z" style="stroke: none; stroke-width: 1; stroke-dasharray: none; stroke-linecap: butt; stroke-linejoin: miter; stroke-miterlimit: 10; fill: rgb(69,86,60); fill-rule: nonzero; opacity: 1;" transform=" matrix(1 0 0 1 0 0) " stroke-linecap="round" />
	<path d="M 20.545 47.345 H 1.496 C 0.669 47.345 0 46.675 0 45.849 s 0.669 -1.496 1.496 -1.496 h 19.049 c 0.826 0 1.496 0.669 1.496 1.496 S 21.371 47.345 20.545 47.345 z" style="stroke: none; stroke-width: 1; stroke-dasharray: none; stroke-linecap: butt; stroke-linejoin: miter; stroke-miterlimit: 10; fill: rgb(69,86,60); fill-rule: nonzero; opacity: 1;" transform=" matrix(1 0 0 1 0 0) " stroke-linecap="round" />
	<path d="M 22.864 34.384 H 4.274 c -0.826 0 -1.496 -0.669 -1.496 -1.496 s 0.669 -1.496 1.496 -1.496 h 18.59 c 0.826 0 1.496 0.669 1.496 1.496 S 23.691 34.384 22.864 34.384 z" style="stroke: none; stroke-width: 1; stroke-dasharray: none; stroke-linecap: butt; stroke-linejoin: miter; stroke-miterlimit: 10; fill: rgb(69,86,60); fill-rule: nonzero; opacity: 1;" transform=" matrix(1 0 0 1 0 0) " stroke-linecap="round" />
	<path d="M 22.864 60.306 H 4.274 c -0.826 0 -1.496 -0.67 -1.496 -1.496 c 0 -0.826 0.669 -1.496 1.496 -1.496 h 18.59 c 0.826 0 1.496 0.67 1.496 1.496 C 24.36 59.636 23.691 60.306 22.864 60.306 z" style="stroke: none; stroke-width: 1; stroke-dasharray: none; stroke-linecap: butt; stroke-linejoin: miter; stroke-miterlimit: 10; fill: rgb(69,86,60); fill-rule: nonzero; opacity: 1;" transform=" matrix(1 0 0 1 0 0) " stroke-linecap="round" />
</g>
</svg>