<?xml version="1.0" encoding="iso-8859-1"?>
<!-- Generator: Adobe Illustrator 19.0.0, SVG Export Plug-In . SVG Version: 6.00 Build 0)  -->
<svg version="1.1" id="Layer_1" xmlns="http://www.w3.org/2000/svg" xmlns:xlink="http://www.w3.org/1999/xlink" x="0px" y="0px"
	 viewBox="0 0 326.704 326.704" style="enable-background:new 0 0 326.704 326.704;" xml:space="preserve">
<g>
	<circle style="fill:#FCE38A;" cx="163.352" cy="163.352" r="155.852"/>
	<circle style="fill:#FCE38A;" cx="163.352" cy="163.352" r="96.975"/>
	<g>
		<path style="fill:#414042;" d="M163.352,0C73.28,0,0,73.28,0,163.352s73.28,163.352,163.352,163.352
			s163.352-73.28,163.352-163.352S253.425,0,163.352,0z M163.352,311.705C81.551,311.705,15,245.154,15,163.352
			S81.551,15,163.352,15s148.352,66.551,148.352,148.352S245.154,311.705,163.352,311.705z"/>
		<path style="fill:#414042;" d="M286.475,196.048c-3.933-1.295-8.174,0.841-9.47,4.776c-10.088,30.617-32.561,56.242-61.656,70.306
			c-7.166,3.464-4.647,14.254,3.27,14.254c5.141,0,54.189-23.889,72.632-79.866C292.547,201.584,290.409,197.344,286.475,196.048z"
			/>
		<path style="fill:#414042;" d="M267.828,163.352c0-57.608-46.867-104.475-104.475-104.475S58.877,105.745,58.877,163.352
			s46.867,104.475,104.475,104.475S267.828,220.96,267.828,163.352z M163.352,252.828c-49.337,0-89.475-40.138-89.475-89.475
			s40.138-89.475,89.475-89.475s89.475,40.138,89.475,89.475S212.689,252.828,163.352,252.828z"/>
		<path style="fill:#414042;" d="M183.261,131.036c4.142,0,7.5-3.358,7.5-7.5s-3.358-7.5-7.5-7.5h-12.408v-11.517
			c0-4.142-3.358-7.5-7.5-7.5s-7.5,3.358-7.5,7.5v12.568c-11.477,3.271-19.908,13.844-19.908,26.357
			c0,12.512,8.431,23.085,19.908,26.356v25.869h-12.408c-4.142,0-7.5,3.358-7.5,7.5s3.358,7.5,7.5,7.5h12.408v11.517
			c0,4.142,3.358,7.5,7.5,7.5s7.5-3.358,7.5-7.5v-12.568c26.437-7.535,26.467-45.17,0-52.713v-25.869L183.261,131.036
			L183.261,131.036z M155.852,133.582v19.724C149.304,148.313,149.315,138.566,155.852,133.582z M170.852,193.123v-19.724
			C177.401,178.392,177.39,188.139,170.852,193.123z"/>
	</g>
</g>
<g>
</g>
<g>
</g>
<g>
</g>
<g>
</g>
<g>
</g>
<g>
</g>
<g>
</g>
<g>
</g>
<g>
</g>
<g>
</g>
<g>
</g>
<g>
</g>
<g>
</g>
<g>
</g>
<g>
</g>
</svg>
