<?xml version="1.0" encoding="UTF-8" ?>
<!DOCTYPE svg PUBLIC "-//W3C//DTD SVG 1.1//EN" "http://www.w3.org/Graphics/SVG/1.1/DTD/svg11.dtd">
<svg width="400pt" height="400pt" viewBox="0 0 400 400" version="1.1" xmlns="http://www.w3.org/2000/svg">
<g id="#ffffffff">
<path fill="#ffffff" opacity="1.00" d=" M 192.14 25.19 C 200.44 20.19 207.03 12.94 213.30 5.66 C 210.04 12.72 206.38 19.59 202.97 26.58 C 202.10 28.15 201.30 29.76 200.52 31.38 C 196.78 39.76 196.10 49.95 200.88 58.06 C 206.61 66.42 217.42 67.58 225.64 72.36 C 233.42 76.82 241.34 82.64 244.67 91.31 C 245.87 93.95 245.65 96.89 245.34 99.70 C 237.04 86.60 224.63 76.09 210.16 70.44 C 213.12 74.32 216.27 78.05 219.25 81.92 C 208.04 77.30 197.18 71.35 185.10 69.30 C 177.50 67.92 169.76 71.08 163.91 75.81 C 160.55 78.56 156.84 80.85 153.48 83.60 C 151.95 81.33 149.82 79.18 149.23 76.46 C 154.25 70.96 158.79 64.58 159.96 57.04 C 160.96 52.12 159.70 46.98 156.80 42.92 C 155.48 40.72 154.12 38.54 152.72 36.39 C 149.35 31.85 145.65 27.56 142.26 23.02 C 148.97 25.52 155.57 28.45 162.52 30.19 L 162.52 30.38 C 162.53 30.58 162.55 30.97 162.55 31.16 C 167.71 31.25 172.92 31.98 178.04 31.01 C 183.13 30.25 187.84 27.95 192.14 25.19 Z" />
</g>
<g id="#773e00ff">
<path fill="#773e00" opacity="1.00" d=" M 205.19 23.25 C 221.95 22.74 238.89 23.86 255.01 28.78 C 271.30 33.97 286.92 41.84 299.88 53.11 C 324.46 74.76 340.51 105.12 347.10 137.02 C 354.34 172.60 353.07 209.81 343.78 244.89 C 335.61 275.80 323.15 306.01 303.69 331.59 C 284.95 357.10 258.78 377.43 228.72 387.70 C 203.16 396.46 175.18 396.79 149.03 390.58 C 114.27 380.32 85.10 354.23 69.08 321.96 C 67.21 318.21 65.00 314.64 63.37 310.78 C 53.77 285.71 47.69 259.00 48.25 232.04 C 47.61 207.38 52.56 183.04 58.19 159.17 C 68.78 125.06 84.82 91.74 110.21 66.14 C 122.65 54.04 136.98 43.76 152.72 36.39 C 154.12 38.54 155.48 40.72 156.80 42.92 C 156.65 43.31 156.35 44.09 156.20 44.48 C 147.55 47.16 139.50 51.73 132.75 57.76 C 127.90 62.05 122.84 66.10 118.23 70.64 C 108.26 79.26 99.95 89.66 92.77 100.67 C 78.21 123.58 69.11 149.51 62.65 175.75 C 53.63 211.79 53.60 250.24 63.56 286.08 C 68.54 302.10 74.22 318.47 84.90 331.68 C 91.22 340.70 98.03 349.51 106.27 356.87 C 124.34 375.48 150.32 384.93 175.86 386.51 C 197.53 388.23 219.52 384.29 239.22 375.12 C 245.21 372.29 250.86 368.79 256.50 365.34 C 264.75 360.14 272.23 353.83 279.33 347.18 C 283.55 343.12 287.50 338.78 291.27 334.30 C 315.22 305.26 330.74 269.81 338.11 233.02 C 345.65 198.17 346.61 161.31 336.46 126.87 C 328.31 98.95 312.79 72.36 289.19 54.81 C 274.94 43.78 257.97 36.49 240.26 33.33 C 227.23 30.43 213.77 30.71 200.52 31.38 C 201.30 29.76 202.10 28.15 202.97 26.58 C 203.69 25.46 204.44 24.35 205.19 23.25 Z" />
<path fill="#773e00" opacity="1.00" d=" M 163.35 30.84 C 172.87 28.64 182.40 26.24 192.14 25.19 C 187.84 27.95 183.13 30.25 178.04 31.01 C 172.92 31.98 167.71 31.25 162.55 31.16 C 162.55 30.97 162.53 30.58 162.52 30.38 C 162.54 30.18 162.56 29.78 162.57 29.58 L 163.35 30.84 Z" />
</g>
<g id="#ffe752ff">
<path fill="#ffe752" opacity="1.00" d=" M 200.88 58.06 C 196.10 49.95 196.78 39.76 200.52 31.38 C 201.67 33.19 202.45 35.87 204.97 36.08 C 214.75 38.58 225.13 39.73 233.97 44.94 C 255.98 56.52 271.47 77.53 280.83 100.14 C 295.61 135.91 298.38 175.90 292.75 213.95 C 287.53 245.71 276.65 276.78 259.38 304.02 C 247.40 312.28 238.26 324.11 225.76 331.71 C 215.95 337.46 205.46 342.51 194.11 344.23 C 185.82 345.50 177.35 345.55 169.02 344.62 C 169.71 344.11 170.41 343.61 171.11 343.13 C 187.19 339.94 201.55 331.12 213.67 320.34 C 225.45 309.90 234.70 296.85 242.01 282.98 C 252.41 263.76 258.64 242.67 263.79 221.53 C 264.13 223.76 264.55 225.99 265.03 228.21 C 270.22 214.08 271.02 198.86 271.43 183.97 C 271.58 171.66 271.83 159.30 270.10 147.08 C 267.58 127.02 260.88 107.34 249.62 90.47 C 238.67 73.77 221.26 60.06 200.88 58.06 Z" />
</g>
<g id="#ff9e14ff">
<path fill="#ff9e14" opacity="1.00" d=" M 200.52 31.38 C 213.77 30.71 227.23 30.43 240.26 33.33 C 236.94 34.21 233.79 35.63 230.81 37.32 C 239.70 43.65 249.15 49.36 256.87 57.17 C 275.56 75.80 287.14 100.44 293.19 125.89 C 302.21 163.65 300.37 203.51 291.25 241.07 C 283.00 273.00 268.25 303.39 247.52 329.10 C 243.75 333.81 240.03 338.58 236.99 343.80 C 250.60 348.29 265.18 349.72 279.33 347.18 C 272.23 353.83 264.75 360.14 256.50 365.34 C 251.35 365.05 246.14 364.99 241.10 363.75 C 234.70 362.34 228.54 359.95 222.06 358.91 C 214.94 357.70 209.16 362.87 203.07 365.60 C 185.61 375.46 164.59 377.96 145.05 374.19 C 136.81 372.91 129.17 369.28 122.04 365.10 C 116.89 362.16 112.03 358.55 106.27 356.87 C 98.03 349.51 91.22 340.70 84.90 331.68 C 82.14 321.14 76.14 311.85 72.40 301.67 C 67.59 288.53 64.63 274.77 62.78 260.93 C 56.81 212.84 65.36 163.16 86.57 119.63 C 91.13 110.48 96.43 101.71 102.34 93.38 C 107.69 85.85 114.23 79.06 118.23 70.64 C 122.84 66.10 127.90 62.05 132.75 57.76 C 139.50 51.73 147.55 47.16 156.20 44.48 C 155.43 47.93 152.55 50.03 149.68 51.69 C 132.39 62.08 118.36 77.16 107.04 93.70 C 89.47 115.68 79.99 142.81 72.88 169.71 C 64.66 193.89 64.01 219.86 65.56 245.11 C 65.98 258.99 68.50 272.71 71.78 286.18 C 77.93 308.55 88.00 330.72 105.23 346.77 C 109.12 350.55 112.68 354.72 117.17 357.82 C 128.27 365.48 141.43 370.26 154.93 370.98 C 163.24 371.05 171.70 371.67 179.86 369.69 C 198.27 365.71 216.01 356.49 228.28 341.98 C 240.55 331.12 251.81 318.66 259.38 304.02 C 276.65 276.78 287.53 245.71 292.75 213.95 C 298.38 175.90 295.61 135.91 280.83 100.14 C 271.47 77.53 255.98 56.52 233.97 44.94 C 225.13 39.73 214.75 38.58 204.97 36.08 C 202.45 35.87 201.67 33.19 200.52 31.38 Z" />
</g>
<g id="#ffca38ff">
<path fill="#ffca38" opacity="1.00" d=" M 230.81 37.32 C 233.79 35.63 236.94 34.21 240.26 33.33 C 257.97 36.49 274.94 43.78 289.19 54.81 C 312.79 72.36 328.31 98.95 336.46 126.87 C 346.61 161.31 345.65 198.17 338.11 233.02 C 330.74 269.81 315.22 305.26 291.27 334.30 C 280.55 333.03 269.77 332.82 258.99 333.05 C 254.74 333.41 250.86 331.53 247.52 329.10 C 268.25 303.39 283.00 273.00 291.25 241.07 C 300.37 203.51 302.21 163.65 293.19 125.89 C 287.14 100.44 275.56 75.80 256.87 57.17 C 249.15 49.36 239.70 43.65 230.81 37.32 Z" />
</g>
<g id="#ffe652ff">
<path fill="#ffe652" opacity="1.00" d=" M 156.20 44.48 C 156.35 44.09 156.65 43.31 156.80 42.92 C 159.70 46.98 160.96 52.12 159.96 57.04 C 158.79 64.58 154.25 70.96 149.23 76.46 C 149.82 79.18 151.95 81.33 153.48 83.60 C 152.85 84.41 152.25 85.24 151.63 86.06 C 149.73 84.84 147.85 83.60 145.97 82.38 C 136.39 92.36 125.93 101.68 118.25 113.30 C 106.41 130.55 97.18 149.75 92.34 170.16 C 89.18 184.17 86.47 198.30 85.14 212.62 C 82.82 207.92 81.05 202.75 81.59 197.44 C 84.86 172.28 87.27 146.56 96.81 122.80 C 100.32 113.14 105.20 103.89 107.04 93.70 C 118.36 77.16 132.39 62.08 149.68 51.69 C 152.55 50.03 155.43 47.93 156.20 44.48 Z" />
</g>
<g id="#fff8d2ff">
<path fill="#fff8d2" opacity="1.00" d=" M 200.88 58.06 C 221.26 60.06 238.67 73.77 249.62 90.47 C 260.88 107.34 267.58 127.02 270.10 147.08 C 271.83 159.30 271.58 171.66 271.43 183.97 C 271.02 198.86 270.22 214.08 265.03 228.21 C 264.55 225.99 264.13 223.76 263.79 221.53 C 269.31 190.97 268.74 158.87 258.89 129.23 C 255.51 118.91 250.87 109.03 245.34 99.70 C 245.65 96.89 245.87 93.95 244.67 91.31 C 241.34 82.64 233.42 76.82 225.64 72.36 C 217.42 67.58 206.61 66.42 200.88 58.06 Z" />
</g>
<g id="#ffb42cff">
<path fill="#ffb42c" opacity="1.00" d=" M 163.91 75.81 C 169.76 71.08 177.50 67.92 185.10 69.30 C 197.18 71.35 208.04 77.30 219.25 81.92 C 216.27 78.05 213.12 74.32 210.16 70.44 C 224.63 76.09 237.04 86.60 245.34 99.70 C 250.87 109.03 255.51 118.91 258.89 129.23 C 268.74 158.87 269.31 190.97 263.79 221.53 C 258.64 242.67 252.41 263.76 242.01 282.98 C 234.70 296.85 225.45 309.90 213.67 320.34 C 207.63 317.47 202.30 322.68 197.28 325.31 C 185.08 332.60 170.41 335.90 156.32 333.57 C 138.80 330.21 123.75 318.65 113.81 304.13 C 104.03 289.74 97.76 273.06 94.84 255.94 C 92.69 244.40 91.49 232.67 91.24 220.92 C 91.00 206.03 94.52 191.43 95.43 176.62 C 95.69 174.03 93.76 172.07 92.34 170.16 C 97.18 149.75 106.41 130.55 118.25 113.30 C 125.93 101.68 136.39 92.36 145.97 82.38 C 147.85 83.60 149.73 84.84 151.63 86.06 C 152.25 85.24 152.85 84.41 153.48 83.60 C 156.84 80.85 160.55 78.56 163.91 75.81 Z" />
</g>
<g id="#f95e00ff">
<path fill="#f95e00" opacity="1.00" d=" M 92.77 100.67 C 99.95 89.66 108.26 79.26 118.23 70.64 C 114.23 79.06 107.69 85.85 102.34 93.38 C 96.43 101.71 91.13 110.48 86.57 119.63 C 65.36 163.16 56.81 212.84 62.78 260.93 C 64.63 274.77 67.59 288.53 72.40 301.67 C 76.14 311.85 82.14 321.14 84.90 331.68 C 74.22 318.47 68.54 302.10 63.56 286.08 C 53.60 250.24 53.63 211.79 62.65 175.75 C 69.11 149.51 78.21 123.58 92.77 100.67 Z" />
<path fill="#f95e00" opacity="1.00" d=" M 106.27 356.87 C 112.03 358.55 116.89 362.16 122.04 365.10 C 129.17 369.28 136.81 372.91 145.05 374.19 C 164.59 377.96 185.61 375.46 203.07 365.60 C 215.27 368.20 227.02 372.50 239.22 375.12 C 219.52 384.29 197.53 388.23 175.86 386.51 C 150.32 384.93 124.34 375.48 106.27 356.87 Z" />
</g>
<g id="#ffc537ff">
<path fill="#ffc537" opacity="1.00" d=" M 72.88 169.71 C 79.99 142.81 89.47 115.68 107.04 93.70 C 105.20 103.89 100.32 113.14 96.81 122.80 C 87.27 146.56 84.86 172.28 81.59 197.44 C 81.05 202.75 82.82 207.92 85.14 212.62 C 86.34 230.39 84.82 248.50 89.24 265.93 C 93.86 287.68 102.41 309.59 118.82 325.20 C 126.15 332.18 134.92 337.92 144.86 340.28 C 153.43 342.25 162.27 344.49 171.11 343.13 C 170.41 343.61 169.71 344.11 169.02 344.62 C 177.35 345.55 185.82 345.50 194.11 344.23 C 205.46 342.51 215.95 337.46 225.76 331.71 C 238.26 324.11 247.40 312.28 259.38 304.02 C 251.81 318.66 240.55 331.12 228.28 341.98 C 219.97 344.43 212.31 348.63 204.00 351.06 C 196.82 353.17 189.47 355.08 181.94 355.19 C 174.38 355.26 166.70 355.55 159.31 353.66 C 136.82 348.39 116.93 334.19 103.28 315.72 C 90.57 297.89 81.60 277.47 76.82 256.11 C 73.55 241.97 72.09 227.48 71.22 213.02 C 70.62 198.55 73.31 184.19 72.88 169.71 Z" />
</g>
<g id="#ffa91dff">
<path fill="#ffa91d" opacity="1.00" d=" M 65.56 245.11 C 64.01 219.86 64.66 193.89 72.88 169.71 C 73.31 184.19 70.62 198.55 71.22 213.02 C 72.09 227.48 73.55 241.97 76.82 256.11 C 81.60 277.47 90.57 297.89 103.28 315.72 C 116.93 334.19 136.82 348.39 159.31 353.66 C 166.70 355.55 174.38 355.26 181.94 355.19 C 189.47 355.08 196.82 353.17 204.00 351.06 C 212.31 348.63 219.97 344.43 228.28 341.98 C 216.01 356.49 198.27 365.71 179.86 369.69 C 171.70 371.67 163.24 371.05 154.93 370.98 C 141.43 370.26 128.27 365.48 117.17 357.82 C 112.68 354.72 109.12 350.55 105.23 346.77 C 88.00 330.72 77.93 308.55 71.78 286.18 C 68.50 272.71 65.98 258.99 65.56 245.11 Z" />
</g>
<g id="#ff8f0fff">
<path fill="#ff8f0f" opacity="1.00" d=" M 92.34 170.16 C 93.76 172.07 95.69 174.03 95.43 176.62 C 94.52 191.43 91.00 206.03 91.24 220.92 C 91.49 232.67 92.69 244.40 94.84 255.94 C 97.76 273.06 104.03 289.74 113.81 304.13 C 123.75 318.65 138.80 330.21 156.32 333.57 C 170.41 335.90 185.08 332.60 197.28 325.31 C 202.30 322.68 207.63 317.47 213.67 320.34 C 201.55 331.12 187.19 339.94 171.11 343.13 C 162.27 344.49 153.43 342.25 144.86 340.28 C 134.92 337.92 126.15 332.18 118.82 325.20 C 102.41 309.59 93.86 287.68 89.24 265.93 C 84.82 248.50 86.34 230.39 85.14 212.62 C 86.47 198.30 89.18 184.17 92.34 170.16 Z" />
</g>
<g id="#ffb82bff">
<path fill="#ffb82b" opacity="1.00" d=" M 236.99 343.80 C 240.03 338.58 243.75 333.81 247.52 329.10 C 250.86 331.53 254.74 333.41 258.99 333.05 C 269.77 332.82 280.55 333.03 291.27 334.30 C 287.50 338.78 283.55 343.12 279.33 347.18 C 265.18 349.72 250.60 348.29 236.99 343.80 Z" />
</g>
<g id="#ff7d00ff">
<path fill="#ff7d00" opacity="1.00" d=" M 203.07 365.60 C 209.16 362.87 214.94 357.70 222.06 358.91 C 228.54 359.95 234.70 362.34 241.10 363.75 C 246.14 364.99 251.35 365.05 256.50 365.34 C 250.86 368.79 245.21 372.29 239.22 375.12 C 227.02 372.50 215.27 368.20 203.07 365.60 Z" />
</g>
</svg>
