<svg width="246" height="200" viewBox="0 0 246 200" fill="none" xmlns="http://www.w3.org/2000/svg">
<g clip-path="url(#clip0_649_9)">
<path d="M215.12 150.57C162.27 108.665 0 0 0 0V29.2931L56.5866 69.0054L0 56.7094V82.0909L31.4682 100.631L0 94.9132V107.648L83.9151 161.428L34.5378 193.457H91.1244C91.1244 193.457 119.996 174.25 171.935 175.548C215.892 176.636 229.749 187.055 232.521 190.721C236.046 195.387 229.872 200.018 229.872 200.018C229.872 200.018 245.255 195.036 245.255 184.617C245.255 169.707 227.557 160.446 215.12 150.588M197.72 161.165L183.021 142.975L211.998 162.042L197.72 161.165Z" fill="#F5A71F"/>
</g>
<defs>
<clipPath id="clip0_649_9">
<rect width="245.255" height="200" fill="white"/>
</clipPath>
</defs>
</svg>
