<svg width="526" height="542" viewBox="0 0 526 542" fill="#f2a900" xmlns="http://www.w3.org/2000/svg">
<g clip-path="url(#clip0_989_2052)">
<path d="M509.66 246.07C507.16 237.12 503.55 228.54 499.03 220.59C496.4 215.95 493.83 211.9 491.12 208.24C489.09 205.5 486.99 202.99 484.76 200.66C481.42 197.17 477.82 194.12 473.89 191.27C469.96 188.42 465.69 185.74 460.85 182.87C460.09 182.42 459.35 182.01 458.64 181.64C457.56 181.09 456.56 180.64 455.61 180.25C454.66 179.85 453.76 179.49 452.63 179.03L438.42 173.15L438.56 189.12C438.56 189.12 438.56 190.18 438.59 192.06C438.65 198.65 438.79 215.38 438.93 232.33C439 240.81 439.06 249.34 439.1 256.69C439.14 262.72 439.16 267.95 439.17 271.69L409.74 289.72L380.18 271.5L376.56 173.41L362.34 180.76C362.34 180.76 360 181.97 357.5 183.28C356.25 183.93 354.96 184.61 353.87 185.19C353.33 185.48 352.84 185.74 352.41 185.98C352.2 186.1 352 186.21 351.81 186.31C351.61 186.42 351.44 186.52 351.17 186.68C344.93 190.51 339.43 195 334.64 199.94C327.45 207.36 321.87 215.77 317.55 224.55C313.23 233.33 310.16 242.47 307.94 251.5C306.1 259 305.22 266.39 305.22 273.59C305.22 282.87 306.68 291.82 309.28 300.3C311.88 308.79 315.6 316.83 320.13 324.44C323.08 329.4 326.25 333.9 329.68 337.96C334.82 344.05 340.53 349.15 346.77 353.36C353.01 357.58 359.75 360.91 366.97 363.66C381.19 369.08 396.16 372.08 411.25 372.08C424.69 372.08 438.22 369.69 451.28 364.52C458.15 361.8 464.66 358.15 470.69 353.81C479.74 347.3 487.74 339.25 494.33 330.28C500.91 321.31 506.1 311.41 509.38 301.1C512.23 292.13 513.53 282.91 513.53 273.78C513.53 264.35 512.15 255.02 509.65 246.07H509.66ZM489.88 294.35C488.24 299.52 485.88 304.75 482.92 309.8C478.47 317.38 472.66 324.54 465.98 330.54C459.31 336.54 451.79 341.37 444 344.45C433.38 348.65 422.38 350.62 411.26 350.62C398.79 350.62 386.18 348.13 374.02 343.5C369.97 341.96 366.27 340.26 362.86 338.36C357.74 335.5 353.26 332.2 349.13 328.12C345 324.05 341.21 319.18 337.61 313.13C333.84 306.79 330.89 300.34 328.88 293.78C326.87 287.21 325.8 280.54 325.8 273.6C325.8 268.21 326.45 262.66 327.88 256.84C330.42 246.47 334.19 236.37 339.63 227.52C342.35 223.09 345.48 218.97 349.11 215.23C351.59 212.68 354.3 210.3 357.28 208.12L360.08 284.04L409.72 314.64L457.7 285.25L459 281.78C459.24 281.12 459.33 280.74 459.41 280.43C459.48 280.13 459.52 279.92 459.55 279.75C459.61 279.41 459.63 279.22 459.65 279.06C459.68 278.76 459.69 278.61 459.7 278.48C459.71 278.24 459.72 278.1 459.72 277.96C459.72 277.72 459.73 277.49 459.73 277.23C459.74 276.46 459.74 275.37 459.74 273.94C459.74 269.58 459.7 262.12 459.64 253.34C459.54 238.64 459.4 220.27 459.28 206.92C459.9 207.34 460.51 207.75 461.09 208.16C463.27 209.69 465.18 211.18 466.92 212.7C469.53 214.99 471.78 217.39 474.09 220.37C476.39 223.35 478.74 226.95 481.35 231.55C485.01 238 487.93 244.95 489.92 252.09C491.91 259.23 492.98 266.56 492.98 273.79C492.98 280.79 491.99 287.7 489.88 294.35Z" fill="#f2a900"/>
<path d="M455.44 498.93H364.92C364.48 507.68 369.61 515.43 374.39 522.14C386.67 539.39 403.33 545.1 423.76 540.41C436.55 537.47 452.58 518.45 455.47 505.53C455.72 504.41 456.73 498.94 455.44 498.94V498.93Z" fill="#f2a900"/>
<path d="M356.36 463.08C374.2 465.21 395.28 460.75 413.5 462.45C428.38 462.16 447.48 464.94 462.03 463.09C471.65 461.86 472.4 448.98 462.6 446.96L356.5 447.12C346.65 448.86 346.93 461.96 356.36 463.08Z" fill="#f2a900"/>
<path d="M463.67 472.62C435.87 472.39 408.05 472.97 380.25 472.66C373.52 472.59 362.85 470.81 356.42 472.17C348.09 473.94 348.4 486.76 356.85 488.15L465.4 487.57C473.29 483.88 471.9 474.42 463.67 472.61V472.62Z" fill="#f2a900"/>
<path d="M455.5 377.3L443.38 381.69C443.24 381.74 439.97 382.89 434.59 384.01C429.2 385.13 421.7 386.23 413.1 386.23C412.14 386.23 411.16 386.22 410.17 386.19C400.54 385.91 391.23 384.22 384.42 382.58C381.01 381.76 378.23 380.96 376.33 380.38C375.38 380.09 374.65 379.85 374.17 379.69C373.93 379.61 373.75 379.55 373.65 379.51C373.6 379.49 373.56 379.48 373.54 379.47H373.52L361.41 375.1V436.35H455.5V377.31V377.3ZM379.68 417.26V401.03C379.9 401.08 380.11 401.14 380.33 401.19C387.97 403.02 398.35 404.95 409.66 405.28C410.82 405.31 411.97 405.33 413.1 405.33C422.69 405.33 430.99 404.18 437.22 402.93V417.26H379.67H379.68Z" fill="#f2a900"/>
<path d="M101.31 134.42L69.0199 319.79C101.09 321.15 133.73 324.37 165.65 320.34L193.91 135.9H236L234.61 1.46999C181.2 3.69999 125.67 -1.44001 72.4799 1.42999C48.8299 2.69999 28.0799 8.31999 12.3199 28.21C-10.3401 56.78 -0.270075 109.14 30.4099 127.09C46.9299 136.76 57.9399 134.6 75.2799 134.36C83.9599 134.24 92.6499 134.57 101.31 134.42ZM131.56 48.84C135.66 43.09 141.95 39.78 148.67 38.8C174.29 35.09 189.82 66.23 177.36 88.2C159.16 120.29 106.67 83.88 131.56 48.84ZM59.7899 44.45C63.8799 45.03 69.2099 48.66 72.5699 48.6C76.1899 48.53 80.3699 43.99 84.0699 43.17C94.0999 41 101.61 44.81 99.6899 56.61C92.2999 65.88 79.6599 57.44 71.1199 57.5C66.5699 57.51 63.5099 60.1 59.7999 60.44C54.3599 60.94 37.2299 62.52 35.5899 56.55C31.6299 42.16 51.8499 43.3 59.7899 44.44V44.45ZM36.0399 87.14C39.7299 80.6 65.4699 85.97 72.5399 85.78C76.9899 85.66 81.3599 83.56 85.5599 83.13C105.13 81.15 108.65 101.35 85.1199 100.53C76.6899 100.23 70.8899 100.44 62.7699 100.52C51.2499 100.61 30.7699 105.28 36.0299 87.14H36.0399Z" fill="#f2a900"/>
<path d="M301.03 425.65L282.56 425.74L84.45 426.77L68.43 426.85H68.35L62 426.88C62.7 451.94 55.97 477 69.28 499.75C77.13 513.19 88.27 519.02 102.64 522.25L261.84 522.78C285.72 517.68 299.93 498.53 301.93 473.39C303.1 458.75 300.09 443.34 303.29 428.96L301.03 425.63V425.65ZM257.06 500.75C257.06 500.75 148.99 502.26 118.01 500.75C87.01 499.24 84.46 474.22 84.46 474.22V443.37H282.76C282.57 454.37 281.71 465.28 279.67 474.22C272.63 505.08 257.06 500.75 257.06 500.75Z" fill="#f2a900"/>
<path d="M68.29 341.26C66.41 341.11 65.09 340.45 63.43 339.75L62.01 403.27C67.48 402.8 72.93 402.46 78.38 402.2L62.01 403.27L173.37 401.94L281.05 401.98L280.8 400.66H280.92C280.96 401.09 281 401.53 281.04 401.98C291.38 402.07 301.77 401.85 302.74 400.4C306.32 372.16 282.64 341.89 255.98 338.62C250.11 337.91 247.16 339.79 242.37 339.8C185.5 339.95 124.21 345.61 68.28 341.25L68.29 341.26ZM278.64 389.07L276.8 379.19C279.61 384.46 279.67 389.01 279.67 389.01L278.64 389.08V389.07ZM276.8 379.18H84.45V363.33C84.45 363.33 212.11 361.82 245.75 363.33C264.78 364.18 273.13 372.3 276.8 379.18Z" fill="#f2a900"/>
<path d="M380.42 20.07C377.12 17.28 356.07 3.58002 353.17 2.96002H297.75V131.48C315.67 127.69 336.8 132.5 354.24 129.65C360.71 128.59 389.54 114.75 392.11 108.93C397.17 97.44 393.96 73.93 393.19 61.29C392.02 42.54 396.07 33.31 380.42 20.07ZM317.62 17.95C319.12 18.07 321.57 16.25 322.3 16.25C329.1 16.25 351.53 14.8 355.98 16.25C358.84 17.18 361.22 25.7 356.68 27.32L317.56 24.94L317.62 17.95ZM332.06 103.47C320.78 102.72 308.77 101.83 318.1 87.15H360.9C369.1 106.64 343.98 104.27 332.06 103.47ZM362.09 63.3C347.61 66.64 334.01 63.63 319.49 63.52C306.53 52.39 320.37 49.47 330.67 48.69C340.74 47.92 371.25 45.56 362.09 63.3Z" fill="#f2a900"/>
<path d="M506.05 57.68L418.41 59.09V42.83H414.21V96.01C419.02 96.99 415.8 92.13 418.38 89.32C419.44 88.16 421.87 87.51 423.43 87.25C449.42 82.96 483.16 91.27 510.05 85.37L525.03 73.11L506.05 57.67V57.68Z" fill="#f2a900"/>
<path d="M278.05 117.5C276.8 78.43 279.1 39.08 278.1 0L257.69 2.95C257.62 4.66 257.18 6.48 257.06 8.13V134.43L277.3 135.74C282.09 134.52 278.17 121.17 278.05 117.51V117.5Z" fill="#f2a900"/>
<path d="M212.16 155.1L202.34 218.62H238.12C239.94 218.62 244.56 213.54 245.23 211.3C246.75 206.26 244.43 204.93 244.43 203.11V155.1H212.16Z" fill="#f2a900"/>
<path d="M162.69 79.38C166.3 75.81 166.55 67.58 164.27 62.96C157.59 49.45 136.23 57.82 140.9 74.29C142.96 81.57 158.28 83.74 162.7 79.37L162.69 79.38Z" fill="#f2a900"/>
</g>
<defs>
<clipPath id="clip0_989_2052">
<rect width="525.03" height="541.99" fill="#f2a900"/>
</clipPath>
</defs>
</svg>
