<svg width="551" height="591" viewBox="0 0 551 591" fill="#f2a900" xmlns="http://www.w3.org/2000/svg">
<g clip-path="url(#clip0_990_2083)">
<path d="M369.16 178.35C368.66 172.58 366.18 169.04 360.59 168.32C348.7 166.79 334.06 169.5 321.86 168.35C320.08 149.75 311.87 132.01 301.5 117.27C309.84 110.29 316.42 100.87 323.78 92.69C329.04 86.83 337.39 83.85 329.24 74.44C322.76 66.98 313.02 56.71 306.01 49.56C302.15 45.62 297.46 42.42 292.08 45.19C284.56 54 275.54 61.31 267.67 69.71C265.97 71.54 263.74 74.17 263.18 76.66H261.58C260.52 72.8 255.96 70.08 252.85 68.1C241.29 60.78 226.01 54.83 212.68 53.09C212.7 40.66 211.17 28.23 210.29 15.85C210.18 14.35 210.86 12.94 210.74 11.76C210.19 6.36998 208.05 1.38997 202.5 0.689975C195.75 -0.170025 173.19 -0.300025 166.68 0.769975C163.17 1.33997 160.78 3.84997 159.89 7.45997L156.41 52.18C138.91 55.35 120.55 63.28 107.15 75.78C101.24 69.62 94.28 64.51 88.38 58.36C81 50.65 76.31 37.31 64.65 48.16L38.39 78.08C36.13 81.89 38.3 84.91 40.39 87.94L66.66 118.13C56.26 132.43 50.43 150.6 47.21 168.3C45.83 169.73 14.56 167.5 8.73003 168.55C4.37003 169.34 0.680031 172.51 0.420031 177.49C-0.0899686 187.49 -0.299969 209 0.780031 218.56C1.40003 224.08 5.11003 227.51 10.25 227.63C13.72 227.72 17.15 227.63 20.73 227.74C29.53 228.03 38.46 227.63 47.25 227.7C49.4 245.56 55.81 264 66.32 278.03C66.56 278.36 67.19 278.39 67.6 278.37L67.62 279.65C61.23 285.76 56.05 293.51 50.12 300.19C45.11 305.83 34.79 311.42 38.1 320.04C45.38 327.96 53.04 335.46 60.32 343.37C64.32 347.73 67.2 355.26 74.38 353.25L107.14 322.02C121.43 333.15 138.35 339.8 155.66 343.37L159.92 390.32C161.21 394.36 163.61 395.89 167.42 396.25C179.29 397.4 193.28 395.68 205.33 395.75C212.29 390.76 209.62 382.34 210.24 374.83C211.15 363.91 213.23 353.08 213.49 342.08C230.39 339.73 247.25 332.25 261.31 322.1L263.66 319.37L300.99 352.44C304.14 350.67 310.2 343.52 315.15 337.74C317.29 335.25 319.22 333.01 320.62 331.57C321.75 330.42 323.05 329.31 324.38 328.16L324.4 328.14C326.55 326.28 328.75 324.35 330.28 322.03L298.65 282.18L301.51 278.76C304.47 276.15 306.26 272.82 308.16 269.31C314.91 256.85 320.77 242.13 321.86 227.68C329.33 227.55 336.84 227.87 344.31 227.72C346.45 227.68 348.43 226.81 350.75 226.78C358.25 226.66 368.15 231.31 369.17 219.44C370.04 209.23 370.04 188.53 369.17 178.33L369.16 178.35ZM244.72 283.44C150.1 358.08 35.39 232.64 104.63 131.16C137.03 83.68 205.2 75.7 247.28 113.36C298.14 158.88 298.78 240.79 244.72 283.44Z" fill="#f2a900"/>
<path d="M229.46 238.02C204.71 268.98 157.81 268.37 135.48 234.79C108.97 194.91 134.99 136.86 180.8 135.23C232.13 133.4 264.05 194.76 229.46 238.02Z" fill="#f2a900"/>
<path d="M441.31 464.29C422.06 491.52 379.95 489.44 361.94 461.43C337.76 423.82 369.39 372.89 410.34 381.31C446.09 388.66 463.91 432.36 441.31 464.29Z" fill="#f2a900"/>
<path d="M547.12 384.48C544.98 378.56 540.98 363.43 538.08 359.26C536.66 357.22 533.59 355.75 531.19 356.06C521.93 360.71 510.29 362.91 501.26 367.65C500.09 368.27 500.3 369.87 499.85 369.65C493.85 354.74 481.4 342.8 469.35 333.33L481.02 299.66C482.17 293.34 479.24 291.63 474.72 289.18C470.24 286.74 454.84 278.92 450.76 278.19C447.14 277.55 445.94 277.61 443.68 280.66C439.55 286.21 433.22 299.9 429.75 306.78C428.78 308.69 427.71 310.63 427.72 312.92C413.01 309.29 397.23 309.04 382.55 312.95C379.22 305.16 375.48 297.53 372.52 289.55C370.4 283.87 371.59 278.38 364.39 276.41C352.25 279.95 340.66 286.11 329.06 291.44L341.8 330.38C341.8 330.38 323.6 340.71 308.37 361.72L306.39 364.74L272.42 349.46C271.83 349.96 271.32 350.6 270.91 351.39C269.17 354.81 258.56 381.57 258.29 384.16C257.93 387.58 258.32 390.34 261.35 392.07L290.83 406.34C286.14 420.73 286.14 437.93 289.68 452.64C282.58 455.61 275.79 459.42 268.79 462.61C265.56 464.08 258.48 465.59 256.57 467.86C252.51 472.73 257.05 477.03 258.64 481.41C261.84 490.27 264.44 499.37 267.99 508.07C268.82 508.99 269.85 509.76 271.04 510.04C275.66 511.14 288 504.6 293.29 502.82C295.15 502.2 306.48 498.48 307.05 498.94C313.43 512.64 324.73 523.41 336.51 531.77C334.64 537.92 333.09 544.27 331.17 550.39C329.33 556.25 323 567.9 325.97 573.43C328.4 577.99 351.59 585.29 356.77 589.27C364.43 588.24 365 580.25 368.1 574.25C371.97 566.78 376.38 559.59 380.15 552.06C394.15 555.4 408.71 555.84 422.89 553.38L438.55 589.41C439.09 589.95 439.81 590.26 440.53 590.39C444.93 591.14 459.26 583.47 464.41 581.4C469.31 579.44 479.24 579.55 477.76 571.51L466.03 534.68C467.85 534.65 469.58 533.88 471.12 532.91C478.74 528.15 490.77 514.74 496.19 506.98C496.72 506.22 496.86 505.05 497.01 504.11C504.83 508.09 513.24 510.81 521.19 514.42C525.45 516.36 527.77 520.86 532.78 517.58C537.83 514.26 544.64 488.75 548.66 482.37C549.59 478.66 547.9 475.21 544.99 473.2C540.9 470.37 516.66 460.96 515.73 459.57C519.55 444.8 519.95 428.08 515.73 413.32C527.03 410.76 537.42 403.67 548.57 400.03C553.91 395.2 548.91 389.43 547.12 384.48ZM485.08 448.36C469.26 535.75 355.28 549.54 325.48 462.19C297.97 381.6 381.82 312.62 448.61 357.77C474.58 375.32 490.94 416.02 485.08 448.36Z" fill="#f2a900"/>
</g>
<defs>
<clipPath id="clip0_990_2083">
<rect width="550.96" height="590.44" fill="#f2a900"/>
</clipPath>
</defs>
</svg>
