<svg width="492" height="556" viewBox="0 0 492 556" fill="#f2a900" xmlns="http://www.w3.org/2000/svg">
<g clip-path="url(#clip0_990_2068)">
<path d="M489.99 384.16C490.13 348.18 491.08 311.41 490.98 275.28C490.95 265.94 492.57 248.48 491.02 240.37C489.82 234.11 474.75 228.82 469.72 225.68C444.13 209.71 434.29 181.39 432 152.47L431.77 5.82C430.56 2.69 428.04 0.410004 424.58 0.0400042C391.18 -0.279996 357.89 1.39 324.49 1.13C319.15 1.09 314.25 -1.58 309.09 2.64C306.4 4.85 306.05 9.58 304.81 10.85C302.19 13.52 283.97 15.79 279.53 16.06C260.44 17.21 210.06 18.09 193.5 12.11C186.03 9.41 186.24 4.28 179.59 2.03C145.56 1.67 111.52 1.63 77.4999 1.12C68.2099 0.980004 58.2999 -3.49 56.9999 10.53C52.1399 62.92 68.6499 154.58 44.9199 199.26C39.5699 209.33 30.6099 219.1 21.3599 225.67C12.9799 231.63 -0.35008 233.8 -8.04104e-05 245.31L0.15992 477C0.69992 488.74 7.50992 498.26 11.4399 508.59C11.8199 509.58 10.8199 511.17 11.0699 511.5C11.3999 511.94 13.8299 511.8 14.7799 512.86C17.2699 515.63 20.3299 522.59 22.0499 525.25C22.6899 526.25 22.9099 527.42 23.0699 528.57L25.0299 527.56C24.3699 534.68 25.8699 531.39 27.0499 532.13C27.3299 532.31 30.9599 536.09 31.7499 536.91C32.5499 537.74 31.6799 540.91 36.0499 540.58L35.0399 542.55L39.0299 541.55C38.9299 543.43 39.1299 544.38 40.6999 545.39C50.2399 551.54 64.3699 553.43 75.3999 553.93C112.82 555.64 150.5 554.14 188.59 554.61C193.59 554.67 198.49 555.84 204.53 555.63C247.77 554.18 291.45 554.44 334.53 554.36C375.26 554.28 415.93 558.62 451.95 534.98C502.71 501.67 489.78 436.13 489.99 384.16ZM232.04 524.57C221.68 523.16 211 523.34 200.49 523.52C163.76 524.15 121.94 527.09 85.4999 524.61C64.6699 523.19 43.2499 511.38 33.5199 492.62C31.8799 489.46 27.0399 476.94 27.0399 474.12V459.63C48.8699 459.4 70.7399 459.92 92.5799 459.67C125.46 459.3 160.86 460.52 193.37 459.25C200.38 458.98 205.82 455.93 207.98 449.08C206.9 432.05 209.62 412.91 208.08 396.14C207.46 389.33 202.18 385.2 195.58 384.65L27.0199 384.71L28.0199 361.72C42.5099 361.48 57.0599 362.04 71.5599 361.77C109.41 361.05 147.57 360.05 185.56 360.69C189.28 360.75 192.08 362.21 196.43 361.64C213.9 359.35 207.04 331.06 206.93 319.27C206.84 310.08 212.86 289.58 200.05 286.27C144.51 286.75 87.9199 284.02 32.4699 285.75C30.5499 285.81 28.8699 286.53 27.0199 286.8V253.33C34.9999 247.86 44.4399 242.53 51.0099 235.34C83.0199 200.32 84.8299 165.97 85.0599 120.41C85.1999 92.33 80.9699 56.96 83.9699 29.5C84.1199 28.12 83.9899 26.79 85.5999 26.17L101.03 27.05C104.31 51.87 99.9299 78.77 102.04 103.46C102.29 106.38 103.26 109.48 103.93 112.33C109.66 115.06 116.81 114.75 122.08 111.34L123.16 28.69C124.16 25.65 132.31 27.55 135.03 27.05L134.09 110.41C134.73 118.67 152.01 115.86 156.75 113.28C158.25 112.46 158.46 111.95 158.78 110.28L160.04 27.06C161.22 25.86 164.45 38.05 165.01 39.56C184.89 93.61 208.37 144.98 232.03 197.39V524.57H232.04ZM233.84 139.65C229.6 130.35 229.52 123.22 222.5 115.04C219.36 111.38 220.8 109.51 219.55 105.98C215.37 94.23 211.4 86.33 207.84 73.72C206.9 70.41 197.19 59.78 196.29 56.29C195.03 51.42 195.72 42.61 194.05 37.05C214.8 42.4 237.17 41.82 258.58 41.08C261.85 40.97 264.82 39.27 267.53 39.24C271.04 39.19 275.12 41.2 279.55 41.12C284.73 41.03 292.09 39.65 297.03 38.05C299.06 40.78 285.56 65.34 285.13 70.42C280.31 71.12 282.78 72.63 281.6 76.06C280.98 77.87 279.34 79.19 278.04 80.51L281.03 81.5C273.09 93.35 270.11 108.81 261.04 119.47L263.03 120.46L245.05 160.92C242.99 153.38 237.07 146.76 233.83 139.65H233.84ZM460.07 483.14C453.77 504.1 428.87 524.57 406.54 524.57H259.04C259.46 431.5 258.5 338.38 258.99 245.3C259.01 242.21 260.07 239.49 260.08 236.41C260.19 216.57 255.53 199.12 263.53 179.92C276.89 147.85 294.88 116.38 308.52 84C309.88 80.78 310.33 77.08 311.58 74.07C318.16 58.14 325.65 42.5 331.05 26.08C333.28 26.67 332.95 28.77 333.09 30.52C335.22 57.44 330.12 86.21 332.17 113.36C333.52 117.33 357.04 117.02 357.04 110.49V26.06H368.05L369.18 111.34C370.07 114.07 380.18 113.34 382.64 112.08C383.54 111.34 386.04 100.77 386.04 99.49V26.06H401.54C401.79 26.06 402.34 24.88 403.05 25.48L404.09 28.51C406.27 71.13 401.97 117.29 405 159.47C407.87 199.43 427.8 235.61 464.04 253.84V285.81H292.54C288.6 285.81 283.37 295.3 282.99 299.25C281.4 315.6 284.22 334.55 283.1 351.19C283.73 355.18 288.68 359.2 291.99 361.29C318.5 360.9 345.05 360.58 371.59 360.69C374.45 360.7 376.91 361.77 379.5 361.78C407.44 361.88 435.19 361.31 463.04 360.74V383.22C463.04 383.35 464.96 385.54 462.56 385.69C462.32 385.7 460.26 384.68 458.61 384.66C408.82 384.19 359.29 386.49 309.5 385.76C305.53 385.7 302.21 384.33 297.55 384.74C290.7 385.34 286.45 388.53 283.5 394.67C284.2 411.15 280.96 432.08 283.13 448.07C283.92 453.87 287.68 458.05 293.03 460.2C349.64 458.49 406.57 461.03 463.04 458.65C462.53 467.12 462.64 474.65 460.08 483.15L460.07 483.14Z" fill="#f2a900"/>
<path d="M108.78 135.19C104.74 135.91 102.25 138.18 102.02 142.42C103.24 170.68 100.72 199.33 101.48 227.48C101.9 243.18 106.91 255.37 123.23 260.14C131.81 262.65 158.25 262.88 167.55 261.82C179.03 260.51 189.84 247.82 192.96 237.25L192.53 141.95C186.58 133.7 177.15 136.48 168.51 135.98C152.9 135.07 123.39 132.57 108.79 135.18L108.78 135.19ZM163.43 235.74C160.43 237.43 140.93 237.35 136.55 236.85C124.06 235.44 128.24 225.91 128.05 216.87H166.05C164.82 222.78 170.2 231.93 163.44 235.74H163.43ZM128.04 161.92L167.05 160.93V192.9C154.13 195.58 141.08 192.23 128.05 192.9C126.57 182.48 128.03 172.38 128.05 161.92H128.04Z" fill="#f2a900"/>
<path d="M86.99 485.16C83.25 482.15 66.57 481.98 68.19 489.86C68.42 490.97 72.45 497.27 73.39 498.24C83.3 508.47 97.57 493.69 86.99 485.15V485.16Z" fill="#f2a900"/>
<path d="M188.08 492.99C188.2 494.58 190.19 499.38 191.32 500.31C199.6 507.13 212.78 494.44 205.02 485.13C197.92 481.52 187.29 482.97 188.07 492.99H188.08Z" fill="#f2a900"/>
<path d="M106.71 484.77C103.55 485.83 103.66 493.23 104.11 496.04C106.09 508.41 127.59 501.29 119.46 487.69C117.27 484.03 110.33 483.56 106.71 484.77Z" fill="#f2a900"/>
<path d="M171.59 499.64C175.97 496.38 172.77 490.2 172.9 485.75C147.61 476.73 156.28 511.03 171.59 499.64Z" fill="#f2a900"/>
<path d="M144.76 499.32C147.98 496.09 146.68 490.52 145.55 486.6C123.29 476.46 132.23 511.87 144.76 499.32Z" fill="#f2a900"/>
<path d="M297 236.39C298.08 248.49 310.21 259.55 321.99 261.38C347.75 265.38 378.8 265.89 387.98 236.29C388.4 207.67 387.65 179.02 388 150.39C388.04 146.71 390.28 140.52 387.56 136.92C386.1 134.99 373.83 136.16 370.5 135.98C351.9 134.96 333.28 134.89 314.71 135.32C305.18 135.54 299.1 137.22 297.13 147.52C298.89 176.15 294.48 208.16 297 236.39ZM324.04 163.42L325.54 161.92H359.54C359.85 161.92 360.96 160.55 362.04 160.92V192.89C349.3 193.18 336.74 190.45 324.04 192.89V163.42ZM324.04 216.87H359.54C359.75 216.87 360.69 215.37 361.03 215.87C361.25 220.59 363.88 230.5 359.61 233.92C356.39 236.5 330.19 236.72 326.3 235.09C320.54 232.67 323.44 221.92 324.04 216.87Z" fill="#f2a900"/>
<path d="M401.52 499.62C412.34 509.22 423.49 488.91 418.57 484.6C415.86 482.22 403.7 482.66 401.3 484.87C398.19 487.73 398.09 496.57 401.53 499.62H401.52Z" fill="#f2a900"/>
<path d="M287.62 497.53C289.52 500.98 296.7 503.16 299.83 501.37C300.06 501.24 302.54 497.39 302.76 496.82C310.83 476.03 278.49 480.98 287.62 497.53Z" fill="#f2a900"/>
<path d="M371.33 484.91C366.86 488.51 368.69 499.73 375.49 500.64C385.03 501.92 387.37 496.98 385.97 488.17C384.98 481.91 374.66 482.23 371.33 484.91Z" fill="#f2a900"/>
<path d="M320.54 483.61C313.88 484.85 314.32 506.09 329.06 500.1C334.31 497.97 334.46 487.49 331.81 484.84C330.3 483.33 322.72 483.2 320.54 483.61Z" fill="#f2a900"/>
<path d="M348.76 484.83C337.2 487.48 347.78 510.22 358.04 496.1C362.8 489.55 355.73 483.23 348.76 484.83Z" fill="#f2a900"/>
</g>
<defs>
<clipPath id="clip0_990_2068">
<rect width="491.69" height="555.65" fill="#f2a900"/>
</clipPath>
</defs>
</svg>
