<svg width="577" height="427" viewBox="0 0 577 427" fill="#f2a900" xmlns="http://www.w3.org/2000/svg">
<g clip-path="url(#clip0_988_2034)">
<path d="M576.29 311.31C575.01 300.06 563.93 297.98 554.31 298.83C553.81 277.73 553.13 256.42 549.02 235.68C534.1 160.26 488.34 98.62 424.35 57.64C421.8 56.01 412.47 51.65 411.45 50.56C410.25 49.27 408.57 41.55 406.65 38.38C398.71 25.33 384.88 20.44 370.7 17.39C366.76 16.54 361.01 16.8 357.45 15.65C354.31 14.64 350.98 9.35001 347.85 7.27001C342.09 3.44001 332.91 1.54001 326.08 1.07001C306.37 -0.299989 258.32 -1.07999 240.42 3.41001C228.81 6.32001 225.12 14.91 219.7 16.65C200.32 22.89 183.07 16.5 170.5 39.38C168.84 42.41 167.32 49.96 166.71 50.58C163.98 53.33 152.89 58.04 148.79 60.63C93.58 95.53 51.11 149.5 33.11 212.69C25.21 240.42 23.19 269.04 22.83 297.81C13.65 297.93 2.12999 300.47 0.829987 311.28C-2.97001 342.99 6.15999 367.95 31.35 387.7C89.31 433.15 156.23 424.87 225.09 424.64C242.74 424.58 260.44 424.7 278.04 424.64C333.65 424.46 392.9 428.77 447.91 425.68C507.2 422.35 584.17 380.22 576.29 311.3V311.31ZM432.97 128.94C437.39 141.52 443.66 153.82 447.13 166.73C456.18 200.45 466.72 269.18 455.93 301.84C453.06 310.54 446.12 305.75 438.92 305.75C434.82 305.75 431.17 306.85 426.9 306.87C421.88 306.89 416.68 304.5 411.46 306.81V81.03C425.1 94.71 427.04 112.05 432.97 128.94ZM357.52 44.07C366.18 46.93 375.46 49.52 382.49 55.56V306.81H357.51V44.07H357.52ZM302.55 29.07L326.03 30.07L328.53 31.57V304.3C328.45 304.79 327.46 306.69 326.84 306.83L303.6 305.74L302.5 297.35L302.54 29.06L302.55 29.07ZM274.59 28.08V305.81H249.61L248.61 31.07L274.59 28.08ZM194.68 60.56C194.88 58.59 195.41 56.68 195.88 54.77C197.47 51.73 214.1 45.01 218.13 45.02C220.25 45.02 219.4 44.94 219.64 46.52C220.42 51.7 219.34 59 219.59 64.58C223.18 144.17 219.03 224.57 220.68 304.36L219.13 307.81H195.65C194 278.49 194.5 248.81 194.61 219.36C194.74 186.25 195.75 152.6 195.7 119.55C195.67 101.85 192.98 77 194.67 60.57L194.68 60.56ZM50.82 270.35C55.83 195.35 93.3 132.7 153.39 89.2C154.72 88.24 166.1 80.35 166.69 81.03L167.7 307.8L106.22 307.84L49.81 303.81C51.45 292.72 50.08 281.45 50.83 270.35H50.82Z" fill="#f2a900"/>
<path d="M102.55 222.68C107.16 216.85 107.57 209.32 110.26 202.92C115.8 189.72 122.59 178.55 132.21 167.93C135.71 164.06 152.91 150.31 153.53 148.25C154.14 146.22 153.77 145.15 152.75 143.41C151.17 140.72 140.92 130.49 137.69 131.38C135.7 131.92 119.21 148.58 116.71 151.44C108.87 160.43 101.2 171.91 95.9001 182.58C93.2601 187.9 80.4001 216.9 82.9001 220.77C89.2001 222.9 95.9301 223.41 102.55 222.68Z" fill="#f2a900"/>
<path d="M94.8 264.38C97.47 256.91 96.83 248.8 96.63 241.01C92.03 239.81 81.12 237.06 77.72 241.3C76.75 242.51 72.12 263.82 72.83 264.79C79.85 267.51 87.96 268.15 94.81 264.38H94.8Z" fill="#f2a900"/>
</g>
<defs>
<clipPath id="clip0_988_2034">
<rect width="576.85" height="426.8" fill="#f2a900"/>
</clipPath>
</defs>
</svg>
