<svg width="648" height="535" viewBox="0 0 648 535" fill="#f2a900" xmlns="http://www.w3.org/2000/svg">
<g clip-path="url(#clip0_990_2075)">
<path d="M81.4399 507.62L79.7599 531.78C77.2299 534.06 50.5699 530.84 45.6199 529.89C42.1999 529.23 34.9999 528.08 32.3099 525.91C30.0799 524.11 30.8399 520.5 28.6099 518.27C26.6499 516.31 20.2799 513.63 17.3399 511.57C13.0299 508.55 6.01992 504.19 2.33992 500.73C-1.90008 496.74 0.859924 492.63 0.949924 486.95C1.32992 462.25 0.639924 437.47 0.0499245 412.95C-0.350076 396.35 0.829925 396.25 13.0799 391.55C12.8199 373.06 11.1099 354.19 12.1699 335.68C13.3799 314.51 19.8399 292.43 20.8499 270.74C21.5799 255.04 19.9899 239.2 19.9099 223.7C19.6099 169.16 20.4899 114.58 19.9899 60.05C19.9099 51.09 18.4299 41.56 19.0599 32.05C20.5999 8.95 33.9999 15.47 47.2699 14.77C83.2799 12.86 119.5 14.01 155.5 13.55C157.28 13.53 159.12 14.49 160.54 14.36C163.05 14.13 170.17 6.37 174.46 4.58C178.58 2.87 184.83 1.59 189.18 1.22C203.08 0.0600047 232.23 -0.879995 245.42 1.37C254.55 2.92 254.94 9.3 260.2 16.98C262.9 60.69 258.15 107.52 260.62 150.87C263.43 200.21 298.95 255.75 333.07 275.57C370.92 297.56 393.45 292.68 432.4 298.28C474.28 304.29 509.32 343.54 510 400.07C514.79 399.77 523.68 403.86 524.67 410.77C525.32 415.34 523.86 419.62 523.81 424.1C523.5 448.34 525.42 472.22 524.28 496.4C501.25 513.83 475.19 524.64 448.61 527.65L445.91 504.27L428.61 505.37V531.14C413.78 534.44 398.61 534.66 383.6 534.49L382.73 507.61H364.54L363.68 534.5H321.26V508.17C318.41 504.45 314.07 507.66 310.45 507.7C307.23 507.73 304.5 506.38 301.34 506.49V529.45C301.34 529.77 300 532.5 299.61 532.81C284.34 533.96 268.75 532.14 253.46 530.85C249.08 529.7 250.64 518 247.54 512.79C245.25 508.93 233.76 505.86 229.64 504.59C208.9 498.2 187.17 494.64 165.81 495.19L164.72 495.52C158.12 506.89 151.75 518.15 146.14 530.37C139.87 533.21 133.31 531.77 126.84 532.2C119.74 532.67 108.63 534.99 101.77 533.37C100.8 533.14 100.15 532.8 99.5999 531.69V507.6H81.4199L81.4399 507.62ZM240.75 27.04H189.23C187.13 27.04 181.45 29.56 179.33 31.03C174.06 34.69 171.11 39.97 170.58 47.71C169.24 67.34 171.64 89.51 170.65 109.42C169.56 131.41 159.29 154.96 140.77 157.02C116.1 159.77 85.2799 156.65 60.2499 155.81C53.7599 155.59 47.2199 156.06 40.7299 155.86V244.92C56.4499 252.57 70.0499 260.2 83.1699 274.03C110.42 302.76 126.57 343.85 130.77 388.88L143.75 388.3C165.29 340.92 209.16 309.69 251.99 322.21C260.74 324.77 268.47 330.75 276.99 332.72L300.1 280.18L292.38 273.61C288 278.02 280.95 284.85 277.96 290.83C275.86 295.04 276.52 299.71 272.74 303.12C262.13 312.68 248.28 295.53 253.58 280.57C254.44 278.13 259.95 269.26 261.54 268.4C263.68 267.25 265.49 270.91 267.16 269.1L277.94 253.8L277.57 252.16C272.84 248.71 269.9 241.54 267.57 235.38C262.89 241.31 254.6 244.54 250.23 250.46C244.95 257.62 243.78 267.64 232.95 262.82C218.41 256.35 220.42 228.9 235.16 228.58C237.69 228.52 239.26 230.89 240.15 230.72C241.07 230.55 254.56 217.34 255.06 216.32C256.69 212.99 248.31 199.03 248.52 193.92C244.52 196.01 240.15 197.48 235.87 198.27C233.2 198.76 229.76 197.71 227.48 198.62C225.88 199.25 223.71 205.09 221.11 207.18C208.99 216.94 195.55 197.06 201.6 181.94C204.51 174.67 210.32 170.06 216.73 171.78C219.75 172.59 223.09 177.77 223.83 177.87C224.68 177.99 239.14 171.98 240.14 171.31C240.74 170.9 241.35 170.75 241.49 169.7L240.74 142.39C235.74 144.29 225.41 139.84 221.43 141.26C220.81 141.48 219.09 146.26 216.72 147.74C205.81 154.56 192 134.79 200.04 120.56C204.26 113.08 209.5 110.53 216.21 114.2C218.13 115.25 220.28 118.77 220.56 118.85C223.34 119.66 225.2 117.76 226.44 117.76H240.73V85.27C236.85 85.2 232.94 85.37 229.05 85.27C227.35 85.22 225.64 83.82 223.89 84.12C222.02 84.44 220.68 87.56 218.83 88.87C203.25 99.9 188.33 65.35 204.64 55.95C209.08 53.39 213.14 52.98 217.31 56.76C219.41 58.66 219.71 61.76 219.95 61.76H240.73C241.01 50.17 238.48 38.51 240.73 27.03L240.75 27.04ZM149.84 38.24H40.7499V58.96H149.84V38.24ZM40.7499 107.7V127.86C51.6799 126.13 63.0399 126.47 74.1199 126.69C76.3899 126.74 78.4999 127.89 80.9699 127.91C102.08 128.07 123.08 126.33 144.19 126.71C148.89 125.56 150.42 114.63 150.74 109.39L40.7499 107.7ZM81.1399 306.37C69.7599 291.44 55.1099 279.55 39.8899 272.38C41.4199 286.08 37.3699 298.49 35.8099 311.35C32.6399 337.53 30.5499 363.5 32.9599 390H111.74C107.5 359.33 98.2399 328.82 81.1299 306.37H81.1399ZM490.01 401.08C489.54 369.28 472.41 341.92 450 330.42C432.58 321.48 413.64 323.71 395.31 321.65C367.64 318.54 340.02 309.53 314.76 294.89C303.89 317.11 292.5 339.03 283.97 363.03C277.38 360.49 271 356.21 264.31 353.35C248.74 346.7 235.37 343.32 218.92 346.63C198.53 350.73 179.11 365.51 167.16 387.2C181.34 388.72 195.76 390.13 209.76 393.69C221.96 396.79 234.32 402.05 246.65 405.33C300.58 419.71 359.23 429.47 414.24 421.22C439.65 417.41 465.19 408.72 490.01 401.08ZM502.22 421.36C476.09 432.57 446.86 440.36 419.42 444.74C364.58 453.5 303.19 445.59 249.24 431.1C232.79 426.68 216.65 419.93 200.08 416.3C173.78 410.53 148.97 412.98 122.53 413.48C120.48 413.52 118.59 414.66 116.54 414.69L23.4299 414.64V432C24.1899 433.6 25.1599 433.55 26.4199 433.74C51.8099 437.6 84.5299 431.63 110.46 432.57L137.72 434.81C138.96 437.13 125.19 458.55 122.59 460.59C117.18 464.85 112.23 461.73 107.02 461.63C90.8299 461.32 74.6199 461.03 58.5299 460.51C46.5399 460.12 34.5399 460.32 22.5699 459.44L23.4799 478.42C27.2699 478.68 31.4199 480.37 35.1299 480.7C57.8999 482.76 81.5599 480.15 104.42 480.67C110.07 480.8 116.63 483.84 122.4 480.5C129.22 465.45 139.95 452.19 143.07 434.99C157.62 432.13 172.7 430.34 187.38 432.7C203.98 435.38 219.97 442.38 236.26 446.76C313.5 467.5 393.41 476.69 471.07 453.28C481.82 450.04 492.29 445.51 503.09 442.62C503.42 441.47 502.22 440.24 502.22 439.83V421.35V421.36Z" fill="#f2a900"/>
<path d="M275.38 19.76C281.21 13.02 285.97 7.19001 293.73 4.30001C305.63 -0.139986 351.97 -0.809986 365.01 1.25001C370.02 2.04001 380.9 12.18 381.85 18.67C383.16 27.61 382.82 43.9 382.77 53.42C382.37 132.7 375.07 184.4 425.15 241.59C450.91 271.01 482.45 284.16 516.47 285.87C536.39 286.87 553.85 283 573.4 290.62C610.4 305.05 632.31 339.5 634.2 390.07C651.98 395.57 647.03 404.04 646.77 421.87C646.43 445.22 646.95 468.65 647.26 491.96C622.87 507.11 597.52 520.04 570.26 523.17C567.63 522.37 568.67 500.4 567.15 496.41C556.98 501.39 546.41 499.57 535.99 498.65C540.52 486.64 537.9 472.38 538.6 459.46C568.25 454.49 597.77 447.64 625.97 434.7C624.49 427.82 626.16 421.35 625.62 414.65C613.27 421.36 599.5 426.26 586.38 429.98C575.72 433 562.67 436.34 551.91 438.03C549.82 438.36 539.11 440.15 538.55 437.48L537.73 414.64C563.84 411.39 589.36 402.95 614.43 393.4C612.51 363.76 602.52 336.76 581.9 322.21C554.32 302.74 519.34 316.93 489.21 308.83C473.48 304.6 454.43 287.93 438.2 284.09C432.46 282.73 426.66 283.34 420.83 280.22V271.26L412.46 280.02C409.53 284.57 384.78 282.24 383.68 280.14C383.07 276.73 385.53 272.19 387.46 270.08C389.5 267.84 391.5 267.79 393.11 266.19C396.85 262.47 400.57 257.61 404.36 253.79L392.26 233.19C387.14 239.71 379.84 242.59 375.44 250.06C373.21 253.85 373.11 258.04 369.19 261.02C355.33 271.56 340.84 243.97 355.48 229.83C361.19 224.31 363.68 228.55 366.26 227.07C369.57 225.16 374.95 215.77 379.16 213.96L372.35 191.73C367.24 195.56 356.99 196.8 352.48 200.18C350.95 201.32 350.07 204.87 348.07 206.79C331.91 222.28 314.4 188.38 332.25 174C341.77 166.33 345.11 177.06 348.53 177.15C349.46 177.18 365.11 169.76 365.37 168.62L362.85 143.55L343.36 142.43C341 143.01 341.12 146.6 338.24 148.13C333.15 150.83 327.44 149.34 323.46 144.67C309.12 127.9 326.24 105.09 338.78 114.77C340.12 115.8 341.42 118.91 341.64 118.91H361.99C363.02 107.64 359.71 96.31 361.99 85.3H342.51C341.91 85.3 337.06 90.67 333.77 90.84C326.78 91.2 317.81 80.42 317.81 71.3C317.81 62.39 326.13 53.17 332.87 53.99C338.79 54.71 341.08 61.78 341.63 61.78H362.84L361.11 27.05H309.59C309.23 27.05 303.77 28.42 303.07 28.69C299.07 30.25 292.29 38.93 292.07 44.71L290.97 155.88C286.63 151 280.41 156.24 275.39 157V19.76H275.38Z" fill="#f2a900"/>
<path d="M47.0102 332.63C46.1802 320.75 47.8702 311.32 58.4202 317.29C72.1102 325.04 58.4102 347.59 47.0102 332.63Z" fill="#f2a900"/>
<path d="M74.3099 347.65C84.0899 345.79 86.7199 366.85 76.6099 368.68C62.5999 371.22 64.3299 349.55 74.3099 347.65Z" fill="#f2a900"/>
</g>
<defs>
<clipPath id="clip0_990_2075">
<rect width="647.6" height="534.54" fill="#f2a900"/>
</clipPath>
</defs>
</svg>
