<svg width="23" height="23" viewBox="0 0 23 23" fill="none" xmlns="http://www.w3.org/2000/svg">
<path d="M11.25 0C5.04 0 0 5.04 0 11.25C0 17.46 5.04 22.5 11.25 22.5C17.46 22.5 22.5 17.46 22.5 11.25C22.5 5.04 17.46 0 11.25 0ZM19.6425 8.01L16.515 9.30375C15.9413 7.77375 14.7375 6.55875 13.1962 5.99625L14.49 2.86875C16.8525 3.76875 18.7312 5.6475 19.6425 8.01ZM11.25 14.625C9.3825 14.625 7.875 13.1175 7.875 11.25C7.875 9.3825 9.3825 7.875 11.25 7.875C13.1175 7.875 14.625 9.3825 14.625 11.25C14.625 13.1175 13.1175 14.625 11.25 14.625ZM8.02125 2.8575L9.3375 5.985C7.785 6.5475 6.55875 7.77375 5.985 9.32625L2.8575 8.02125C3.76875 5.6475 5.6475 3.76875 8.02125 2.8575ZM2.8575 14.4788L5.985 13.185C6.55875 14.7375 7.77375 15.9525 9.32625 16.515L8.01 19.6425C5.6475 18.7312 3.76875 16.8525 2.8575 14.4788ZM14.49 19.6425L13.1962 16.515C14.7375 15.9413 15.9525 14.7262 16.515 13.1737L19.6425 14.49C18.7312 16.8525 16.8525 18.7312 14.49 19.6425Z" fill="#B8BCC1"/>
</svg>
