<?xml version="1.0" encoding="utf-8"?>
<!-- Generator: Adobe Illustrator 24.0.2, SVG Export Plug-In . SVG Version: 6.00 Build 0)  -->
<svg version="1.1" id="Capa_1" xmlns="http://www.w3.org/2000/svg" xmlns:xlink="http://www.w3.org/1999/xlink" x="0px" y="0px"
	 viewBox="0 0 21 21" style="enable-background:new 0 0 21 21;" xml:space="preserve">
<g>
	<path d="M10.5,21C4.7,21,0,16.3,0,10.5C0,4.7,4.7,0,10.5,0C16.3,0,21,4.7,21,10.5C21,16.3,16.3,21,10.5,21z M10.5,2
		C5.8,2,2,5.8,2,10.5c0,4.7,3.8,8.5,8.5,8.5c4.7,0,8.5-3.8,8.5-8.5C19,5.8,15.2,2,10.5,2z"/>
</g>
<path d="M10.1,13.7c-0.4,0.4-1.1,0.4-1.5,0l-2.3-2.4c-0.4-0.4-0.4-1.1,0-1.5c0.4-0.4,1.1-0.4,1.5,0l1.4,1.4c0.1,0.1,0.3,0.1,0.4,0
	l3.7-3.9c0.4-0.4,1.1-0.4,1.5,0C14.9,7.5,15,7.8,15,8.1c0,0.3-0.1,0.6-0.3,0.8L10.1,13.7z"/>
</svg>
