<svg width="17" height="21" viewBox="0 0 17 21" fill="none" xmlns="http://www.w3.org/2000/svg">
<path d="M13.5541 21L8.26938 13.5802L7.875 12.8456L7.95388 11.3763C7.95388 11.0825 8.16421 10.9111 8.26938 10.8621C8.58489 10.7446 8.92668 10.9601 9.05814 11.0825L9.5314 11.7437L16.0781 21H13.5541Z" fill="#008080"/>
<path d="M7.875 9.70435V8.14869C7.875 7.9709 8.03585 7.67953 8.11627 7.55606L13.5046 0H16.0781L9.00092 9.92659C8.35754 10.46 7.98223 10.0007 7.875 9.70435Z" fill="#008080"/>
<path d="M0 21H2.37015L7.41626 13.6432C7.59976 13.4077 7.79854 12.9075 7.875 12.6868V11.289C7.81383 10.7004 7.18689 10.7985 6.88107 10.9211L0 21Z" fill="#008080"/>
<path d="M6.31486 9.38974L0 0H2.45165H2.60024L7.20637 7.02382C7.62241 7.67445 7.82547 8.08356 7.875 8.20678L7.80071 9.68548C7.4441 10.691 6.66156 9.90729 6.31486 9.38974Z" fill="#008080"/>
<circle cx="7.71094" cy="3.77344" r="1.47656" fill="#008080"/>
</svg>
