<?xml version="1.0" encoding="utf-8"?>
<!-- Generator: Adobe Illustrator 24.0.2, SVG Export Plug-In . SVG Version: 6.00 Build 0)  -->
<svg version="1.1" id="Capa_1" xmlns="http://www.w3.org/2000/svg" xmlns:xlink="http://www.w3.org/1999/xlink" x="0px" y="0px"
	 viewBox="0 0 25 24" style="enable-background:new 0 0 25 24;" xml:space="preserve">
<path d="M12.5,0C5.6,0,0,5.4,0,12s5.6,12,12.5,12S25,18.6,25,12S19.4,0,12.5,0z M16.5,7.1c0,0.2-0.1,0.3-0.3,0.3l-1.3,0
	c-0.9,0-1.1,0.4-1.1,1v1.4h2.3c0.1,0,0.2,0,0.2,0.1c0.1,0.1,0.1,0.1,0.1,0.2v2.5c0,0.2-0.1,0.3-0.3,0.3h-2.3v6.2
	c0,0.2-0.1,0.3-0.3,0.3H11c-0.2,0-0.3-0.1-0.3-0.3V13H8.8c-0.2,0-0.3-0.1-0.3-0.3v-2.5c0-0.2,0.1-0.3,0.3-0.3h1.9V8.2
	c0-2.2,1.4-3.7,3.6-3.7h1.9c0.2,0,0.3,0.1,0.3,0.3V7.1z"/>
</svg>
