<?xml version="1.0" encoding="utf-8"?>
<!-- Generator: Adobe Illustrator 24.0.2, SVG Export Plug-In . SVG Version: 6.00 Build 0)  -->
<svg version="1.1" id="Capa_1" xmlns="http://www.w3.org/2000/svg" xmlns:xlink="http://www.w3.org/1999/xlink" x="0px" y="0px"
	 viewBox="0 0 31 22" style="enable-background:new 0 0 31 22;" xml:space="preserve">
<style type="text/css">
	.st0{fill:#E3E6EB;}
</style>
<path class="st0" d="M27.3,0H3.7C1.6,0,0,1.6,0,3.7v14.7c0,2,1.6,3.7,3.7,3.7h23.7c2,0,3.7-1.6,3.7-3.7V3.7C31,1.6,29.4,0,27.3,0z
	 M18,6c0.5,0,1,0.2,1,0.5S18.5,7,18,7s-1-0.2-1-0.5S17.5,6,18,6z M16,15.9c-1.3,0.2-4,0.2-4-1.7v-2.7H6.8V16H5V6h9.3v7.8
	c0,0.2,0.1,0.6,0.8,0.5H16V15.9z M24.2,16l-1.6-2.5L21.3,16H17V9h2v7l2.6-3.7L19.1,9h2.2l1.4,2.3L24,9h1.8l-2,3.3L26,16H24.2z"/>
<rect x="6.8" y="7.9" class="st0" width="5.2" height="1.9"/>
</svg>
