<?xml version="1.0" encoding="utf-8"?>
<!-- Generator: Adobe Illustrator 24.0.2, SVG Export Plug-In . SVG Version: 6.00 Build 0)  -->
<svg version="1.1" id="Capa_1" xmlns="http://www.w3.org/2000/svg" xmlns:xlink="http://www.w3.org/1999/xlink" x="0px" y="0px"
	 viewBox="0 0 25 24" style="enable-background:new 0 0 25 24;" xml:space="preserve">
<style type="text/css">
	.st0{fill:#C4C4C4;}
</style>
<path class="st0" d="M12.5,0C5.6,0,0,5.4,0,12s5.6,12,12.5,12S25,18.6,25,12S19.4,0,12.5,0z M18.3,14.5c0,1.7-1.4,3-3.2,3H9.9
	c-1.8,0-3.2-1.4-3.2-3V9.5c0-1.7,1.4-3,3.2-3h5.2c1.8,0,3.2,1.4,3.2,3V14.5z"/>
<path class="st0" d="M15.1,7.5H9.9c-1.2,0-2.2,0.9-2.2,2.1v4.9c0,1.1,1,2.1,2.2,2.1h5.2c1.2,0,2.2-0.9,2.2-2.1V9.5
	C17.3,8.4,16.3,7.5,15.1,7.5z M12.5,15.1c-1.5,0-2.8-1.2-2.8-2.8c0-1.5,1.2-2.8,2.8-2.8s2.8,1.2,2.8,2.8
	C15.3,13.8,14,15.1,12.5,15.1z M16.2,9.9c-0.2,0.2-0.4,0.3-0.6,0.3c-0.3,0-0.5-0.1-0.7-0.3c-0.2-0.2-0.3-0.4-0.3-0.7
	s0.1-0.5,0.3-0.7c0.2-0.2,0.4-0.3,0.7-0.3c0.2,0,0.5,0.1,0.6,0.3c0.2,0.2,0.3,0.4,0.3,0.7S16.4,9.7,16.2,9.9z"/>
<path class="st0" d="M14.3,12.3c0,1-0.8,1.8-1.8,1.8s-1.8-0.8-1.8-1.8c0-1,0.8-1.8,1.8-1.8S14.3,11.3,14.3,12.3z"/>
</svg>
