<?xml version="1.0" encoding="utf-8"?>
<!-- Generator: Adobe Illustrator 24.0.2, SVG Export Plug-In . SVG Version: 6.00 Build 0)  -->
<svg version="1.1" id="Capa_1" xmlns="http://www.w3.org/2000/svg" xmlns:xlink="http://www.w3.org/1999/xlink" x="0px" y="0px"
	 viewBox="0 0 25 24" style="enable-background:new 0 0 25 24;" xml:space="preserve">
<path d="M12.5,0C5.6,0,0,5.4,0,12s5.6,12,12.5,12S25,18.6,25,12S19.4,0,12.5,0z M9.2,18H6.7v-8h2.5V18z M7.9,8.9
	c-0.8,0-1.4-0.7-1.4-1.5C6.5,6.7,7.2,6,7.9,6c0.8,0,1.4,0.7,1.4,1.4C9.4,8.2,8.7,8.9,7.9,8.9z M18.5,18H16v-3.9c0-0.9,0-2.1-1.3-2.1
	c-1.3,0-1.5,1-1.5,2.1v4h-2.5v-8h2.4v1.1h0c0.3-0.6,1.1-1.3,2.4-1.3c2.5,0,3,1.7,3,3.8V18z"/>
<g>
	<defs>
		<rect id="SVGID_1_" x="6.5" y="6" width="12" height="12"/>
	</defs>
	<clipPath id="SVGID_2_">
		<use xlink:href="#SVGID_1_"  style="overflow:visible;"/>
	</clipPath>
</g>
</svg>
